<svg xmlns="http://www.w3.org/2000/svg" xmlns:xlink="http://www.w3.org/1999/xlink" width="50" zoomAndPan="magnify" viewBox="0 0 37.5 37.499999" height="50" preserveAspectRatio="xMidYMid meet" version="1.0"><defs><clipPath id="id1"><path d="M 1.535156 0 L 35.964844 0 L 35.964844 37.007812 L 1.535156 37.007812 Z M 1.535156 0 " clip-rule="nonzero"/></clipPath></defs><g clip-path="url(#id1)"><path fill="#f4f6fc" d="M 12.273438 24.316406 C 15.484375 19.714844 10.246094 8.757812 10.246094 8.757812 C 8.417969 8.1875 7.089844 6.492188 7.089844 4.476562 C 7.089844 2.003906 9.097656 0 11.574219 0 C 12.929688 0 14.136719 0.59375 14.957031 1.539062 L 18.164062 0 C 18.089844 1.085938 16.640625 1.949219 15.582031 2.4375 C 15.714844 2.699219 15.828125 2.976562 15.910156 3.269531 C 15.933594 3.359375 17.4375 4.792969 17.4375 4.792969 L 16.023438 5.179688 C 15.828125 6.425781 15.113281 7.507812 14.109375 8.1875 C 16.761719 9.589844 18.820312 11.59375 20.050781 13.667969 L 20.050781 7.085938 L 33.597656 7.085938 L 33.597656 20.621094 L 20.976562 20.621094 C 23.898438 21.28125 26.574219 23.082031 29.152344 30.453125 C 32.570312 28.382812 35.957031 30.039062 35.957031 30.039062 L 27.503906 36.644531 C 27.503906 36.644531 25.363281 27.382812 18.308594 25.523438 C 18.105469 25.472656 17.910156 25.40625 17.730469 25.335938 C 16.886719 28.042969 14.792969 30.796875 7.089844 31.492188 C 9.019531 34.898438 6.414062 37.5 6.414062 37.5 L 1.46875 28.390625 C 1.46875 28.390625 9.058594 28.914062 12.273438 24.316406 Z M 17.738281 17.5625 C 18.4375 17.824219 19.230469 17.988281 20.035156 18.09375 C 20.464844 18.144531 20.894531 18.183594 21.320312 18.199219 C 23.777344 18.3125 26.03125 17.945312 26.03125 17.945312 C 28.152344 18.890625 30.628906 18.722656 30.75 17.945312 C 30.878906 17.125 29.25 17.125 28.804688 17.140625 C 31.019531 17.015625 31.75 16.828125 31.78125 16.234375 C 31.808594 15.566406 30.585938 15.476562 28.390625 15.671875 C 30.136719 15.257812 31.300781 15.148438 30.992188 14.300781 C 30.691406 13.453125 28.667969 14.097656 27.664062 14.621094 C 27.867188 13.730469 27.78125 12.972656 27.113281 12.914062 C 26.445312 12.851562 26.003906 13.347656 25.769531 15.671875 C 23.851562 15.671875 22.066406 15.378906 20.644531 14.878906 C 20.425781 14.800781 20.222656 14.71875 20.027344 14.636719 C 19.261719 14.300781 18.644531 13.894531 18.210938 13.4375 C 18.148438 13.371094 18.089844 13.300781 18.03125 13.234375 L 15.25 16.183594 C 16.046875 16.75 16.910156 17.246094 17.738281 17.5625 Z M 14.46875 4.84375 C 14.902344 4.84375 15.257812 4.492188 15.257812 4.058594 C 15.257812 3.621094 14.902344 3.269531 14.46875 3.269531 C 14.03125 3.269531 13.679688 3.621094 13.679688 4.058594 C 13.679688 4.492188 14.03125 4.84375 14.46875 4.84375 Z M 14.46875 4.84375 " fill-opacity="1" fill-rule="nonzero"/></g></svg>