<svg xmlns="http://www.w3.org/2000/svg" xmlns:xlink="http://www.w3.org/1999/xlink" width="200" zoomAndPan="magnify" viewBox="0 0 150 97.5" height="130" preserveAspectRatio="xMidYMid meet" version="1.0"><defs><g/><clipPath id="id1"><path d="M 71.496094 26.035156 L 94.703125 26.035156 L 94.703125 49.242188 L 71.496094 49.242188 Z M 71.496094 26.035156 " clip-rule="nonzero"/></clipPath><clipPath id="id2"><path d="M 55.160156 9.699219 L 76 9.699219 L 76 31 L 55.160156 31 Z M 55.160156 9.699219 " clip-rule="nonzero"/></clipPath><clipPath id="id3"><path d="M 72.890625 9.753906 L 94.703125 9.753906 L 94.703125 29 L 72.890625 29 Z M 72.890625 9.753906 " clip-rule="nonzero"/></clipPath><clipPath id="id4"><path d="M 55.214844 27.429688 L 74.496094 27.429688 L 74.496094 49.242188 L 55.214844 49.242188 Z M 55.214844 27.429688 " clip-rule="nonzero"/></clipPath></defs><g clip-path="url(#id1)"><path fill="#969696" d="M 89.175781 49.242188 C 87.699219 49.242188 86.3125 48.667969 85.269531 47.621094 L 72.140625 34.496094 C 72.042969 34.398438 71.980469 34.265625 71.964844 34.128906 L 71.605469 30.890625 C 71.585938 30.707031 71.652344 30.519531 71.785156 30.386719 L 75.847656 26.324219 C 75.980469 26.191406 76.167969 26.125 76.351562 26.144531 L 79.589844 26.503906 C 79.726562 26.519531 79.859375 26.582031 79.957031 26.679688 L 93.082031 39.808594 C 94.128906 40.851562 94.703125 42.238281 94.703125 43.714844 C 94.703125 45.191406 94.128906 46.578125 93.082031 47.621094 C 92.039062 48.667969 90.652344 49.242188 89.175781 49.242188 Z M 73.167969 33.777344 L 86.140625 46.75 C 87.8125 48.425781 90.539062 48.425781 92.210938 46.75 C 93.886719 45.078125 93.886719 42.351562 92.210938 40.679688 L 79.238281 27.707031 L 76.511719 27.40625 L 72.867188 31.050781 L 73.167969 33.777344 " fill-opacity="1" fill-rule="evenodd"/></g><path fill="#969696" d="M 88.316406 45.714844 C 88.15625 45.714844 88 45.65625 87.878906 45.535156 L 75.90625 33.5625 C 75.664062 33.320312 75.664062 32.929688 75.90625 32.6875 C 76.144531 32.449219 76.535156 32.449219 76.777344 32.6875 L 88.75 44.664062 C 88.992188 44.902344 88.992188 45.292969 88.75 45.535156 C 88.628906 45.65625 88.472656 45.714844 88.316406 45.714844 " fill-opacity="1" fill-rule="evenodd"/><path fill="#969696" d="M 90.558594 43.46875 C 90.402344 43.46875 90.242188 43.410156 90.125 43.289062 L 78.148438 31.316406 C 77.910156 31.074219 77.910156 30.683594 78.148438 30.441406 C 78.390625 30.203125 78.78125 30.203125 79.023438 30.441406 L 90.996094 42.417969 C 91.238281 42.65625 91.238281 43.046875 90.996094 43.289062 C 90.875 43.410156 90.71875 43.46875 90.558594 43.46875 " fill-opacity="1" fill-rule="evenodd"/><g clip-path="url(#id2)"><path fill="#969696" d="M 73.371094 30.289062 C 73.214844 30.289062 73.054688 30.230469 72.9375 30.109375 L 58.925781 16.097656 L 56.78125 15.1875 C 56.65625 15.132812 56.550781 15.039062 56.484375 14.917969 L 55.292969 12.765625 C 55.160156 12.527344 55.203125 12.226562 55.394531 12.03125 L 57.492188 9.933594 C 57.6875 9.742188 57.988281 9.699219 58.226562 9.832031 L 60.378906 11.023438 C 60.5 11.089844 60.59375 11.195312 60.648438 11.320312 L 61.558594 13.464844 L 75.570312 27.472656 C 75.8125 27.714844 75.8125 28.105469 75.570312 28.347656 L 73.808594 30.109375 C 73.6875 30.230469 73.53125 30.289062 73.371094 30.289062 Z M 57.460938 14.132812 L 59.519531 15.011719 C 59.59375 15.042969 59.660156 15.085938 59.714844 15.140625 L 73.371094 28.800781 L 74.261719 27.910156 L 60.601562 14.253906 C 60.546875 14.195312 60.503906 14.132812 60.472656 14.058594 L 59.59375 12 L 58.035156 11.136719 L 56.597656 12.574219 L 57.460938 14.132812 " fill-opacity="1" fill-rule="evenodd"/></g><g clip-path="url(#id3)"><path fill="#969696" d="M 80.722656 28.933594 C 80.5625 28.933594 80.40625 28.871094 80.285156 28.753906 C 80.042969 28.511719 80.042969 28.121094 80.285156 27.878906 L 83.480469 24.679688 C 83.652344 24.511719 83.902344 24.457031 84.128906 24.535156 C 86.660156 25.445312 89.523438 24.804688 91.425781 22.902344 C 93.085938 21.242188 93.785156 18.847656 93.328125 16.578125 L 89.214844 20.695312 C 88.972656 20.933594 88.582031 20.933594 88.34375 20.695312 L 83.761719 16.113281 C 83.648438 16 83.582031 15.84375 83.582031 15.679688 C 83.582031 15.515625 83.648438 15.355469 83.761719 15.242188 L 87.878906 11.128906 C 85.609375 10.671875 83.214844 11.371094 81.554688 13.03125 C 79.652344 14.933594 79.011719 17.796875 79.921875 20.328125 C 80 20.554688 79.945312 20.804688 79.777344 20.976562 L 73.988281 26.765625 C 73.746094 27.003906 73.355469 27.003906 73.113281 26.765625 C 72.875 26.523438 72.875 26.132812 73.113281 25.890625 L 78.632812 20.371094 C 78.226562 19.035156 78.164062 17.613281 78.460938 16.238281 C 78.789062 14.691406 79.558594 13.28125 80.683594 12.160156 C 81.804688 11.039062 83.214844 10.269531 84.761719 9.9375 C 86.265625 9.613281 87.824219 9.71875 89.269531 10.238281 C 89.46875 10.308594 89.617188 10.476562 89.664062 10.683594 C 89.707031 10.890625 89.644531 11.105469 89.496094 11.253906 L 85.074219 15.679688 L 88.777344 19.382812 L 93.203125 14.960938 C 93.351562 14.8125 93.566406 14.75 93.773438 14.796875 C 93.980469 14.839844 94.148438 14.988281 94.21875 15.1875 C 94.738281 16.632812 94.84375 18.191406 94.519531 19.695312 C 94.1875 21.242188 93.417969 22.652344 92.296875 23.777344 C 91.175781 24.898438 89.765625 25.667969 88.21875 25.996094 C 86.84375 26.292969 85.421875 26.230469 84.085938 25.824219 L 81.15625 28.753906 C 81.035156 28.871094 80.878906 28.933594 80.722656 28.933594 " fill-opacity="1" fill-rule="evenodd"/></g><g clip-path="url(#id4)"><path fill="#969696" d="M 63.425781 49.242188 C 62.484375 49.242188 61.546875 49.078125 60.648438 48.757812 C 60.453125 48.6875 60.300781 48.519531 60.257812 48.3125 C 60.210938 48.105469 60.273438 47.890625 60.421875 47.742188 L 64.847656 43.316406 L 61.140625 39.609375 L 56.714844 44.035156 C 56.566406 44.183594 56.351562 44.246094 56.144531 44.199219 C 55.9375 44.15625 55.769531 44.007812 55.699219 43.808594 C 55.179688 42.363281 55.074219 40.804688 55.398438 39.296875 C 55.730469 37.753906 56.5 36.34375 57.621094 35.21875 C 58.742188 34.097656 60.152344 33.328125 61.699219 32.996094 C 63.074219 32.703125 64.496094 32.765625 65.832031 33.171875 L 71.351562 27.652344 C 71.59375 27.410156 71.984375 27.410156 72.226562 27.652344 C 72.464844 27.894531 72.464844 28.285156 72.226562 28.527344 L 66.4375 34.3125 C 66.265625 34.484375 66.015625 34.539062 65.792969 34.460938 C 63.257812 33.550781 60.394531 34.191406 58.492188 36.09375 C 56.832031 37.753906 56.132812 40.148438 56.589844 42.417969 L 60.703125 38.300781 C 60.820312 38.1875 60.976562 38.121094 61.140625 38.121094 C 61.304688 38.121094 61.460938 38.1875 61.574219 38.300781 L 66.15625 42.882812 C 66.394531 43.121094 66.394531 43.511719 66.15625 43.753906 L 62.039062 47.867188 C 64.308594 48.324219 66.703125 47.625 68.363281 45.964844 C 70.265625 44.0625 70.90625 41.199219 70 38.664062 C 69.917969 38.441406 69.972656 38.191406 70.144531 38.019531 L 73.339844 34.824219 C 73.582031 34.582031 73.972656 34.582031 74.214844 34.824219 C 74.453125 35.0625 74.453125 35.453125 74.214844 35.695312 L 71.285156 38.625 C 71.691406 39.960938 71.753906 41.382812 71.460938 42.757812 C 71.128906 44.304688 70.359375 45.714844 69.238281 46.835938 C 68.113281 47.957031 66.703125 48.726562 65.160156 49.058594 C 64.585938 49.179688 64.007812 49.242188 63.425781 49.242188 " fill-opacity="1" fill-rule="evenodd"/></g><g fill="#9b9b9b" fill-opacity="1"><g transform="translate(20.331166, 65.347289)"><g><path d="M 5.046875 -10.53125 C 6.597656 -10.53125 7.960938 -10.144531 9.140625 -9.375 L 8.15625 -7.296875 C 7.601562 -7.617188 7.015625 -7.878906 6.390625 -8.078125 C 5.765625 -8.285156 5.238281 -8.390625 4.8125 -8.390625 C 4.050781 -8.390625 3.671875 -8.132812 3.671875 -7.625 C 3.671875 -7.300781 3.859375 -7.039062 4.234375 -6.84375 C 4.609375 -6.644531 5.066406 -6.472656 5.609375 -6.328125 C 6.148438 -6.179688 6.691406 -6.003906 7.234375 -5.796875 C 7.773438 -5.597656 8.234375 -5.269531 8.609375 -4.8125 C 8.984375 -4.363281 9.171875 -3.789062 9.171875 -3.09375 C 9.171875 -2.09375 8.78125 -1.3125 8 -0.75 C 7.21875 -0.1875 6.222656 0.09375 5.015625 0.09375 C 4.148438 0.09375 3.296875 -0.0507812 2.453125 -0.34375 C 1.609375 -0.644531 0.875 -1.054688 0.25 -1.578125 L 1.28125 -3.609375 C 1.800781 -3.160156 2.414062 -2.785156 3.125 -2.484375 C 3.84375 -2.191406 4.484375 -2.046875 5.046875 -2.046875 C 5.472656 -2.046875 5.800781 -2.125 6.03125 -2.28125 C 6.269531 -2.4375 6.390625 -2.660156 6.390625 -2.953125 C 6.390625 -3.242188 6.253906 -3.484375 5.984375 -3.671875 C 5.710938 -3.867188 5.375 -4.015625 4.96875 -4.109375 C 4.5625 -4.203125 4.117188 -4.328125 3.640625 -4.484375 C 3.171875 -4.648438 2.726562 -4.828125 2.3125 -5.015625 C 1.90625 -5.203125 1.566406 -5.5 1.296875 -5.90625 C 1.023438 -6.320312 0.890625 -6.816406 0.890625 -7.390625 C 0.890625 -8.347656 1.269531 -9.109375 2.03125 -9.671875 C 2.789062 -10.242188 3.796875 -10.53125 5.046875 -10.53125 Z M 5.046875 -10.53125 "/></g></g></g><g fill="#9b9b9b" fill-opacity="1"><g transform="translate(37.088825, 65.347289)"><g><path d="M 9.1875 -8.328125 L 3.6875 -8.328125 L 3.6875 -6.265625 L 8.65625 -6.265625 L 8.65625 -4.1875 L 3.6875 -4.1875 L 3.6875 -2.078125 L 9.359375 -2.078125 L 9.359375 0 L 1.046875 0 L 1.046875 -10.40625 L 9.1875 -10.40625 Z M 9.1875 -8.328125 "/></g></g></g><g fill="#9b9b9b" fill-opacity="1"><g transform="translate(54.292439, 65.347289)"><g><path d="M 7.3125 0 L 5.765625 -2.9375 L 3.6875 -2.9375 L 3.6875 0 L 1.046875 0 L 1.046875 -10.40625 L 5.703125 -10.40625 C 7.078125 -10.40625 8.140625 -10.085938 8.890625 -9.453125 C 9.648438 -8.828125 10.03125 -7.9375 10.03125 -6.78125 C 10.03125 -5.175781 9.398438 -4.0625 8.140625 -3.4375 L 10.328125 0 Z M 3.6875 -5.015625 L 5.703125 -5.015625 C 6.273438 -5.015625 6.71875 -5.15625 7.03125 -5.4375 C 7.351562 -5.726562 7.515625 -6.144531 7.515625 -6.6875 C 7.515625 -7.226562 7.351562 -7.632812 7.03125 -7.90625 C 6.71875 -8.1875 6.273438 -8.328125 5.703125 -8.328125 L 3.6875 -8.328125 Z M 3.6875 -5.015625 "/></g></g></g><g fill="#9b9b9b" fill-opacity="1"><g transform="translate(72.23931, 65.347289)"><g><path d="M 6.765625 0 L 4.03125 0 L -0.015625 -10.40625 L 2.8125 -10.40625 L 5.46875 -2.75 L 8.140625 -10.40625 L 10.859375 -10.40625 Z M 6.765625 0 "/></g></g></g><g fill="#9b9b9b" fill-opacity="1"><g transform="translate(90.260509, 65.347289)"><g><path d="M 3.6875 0 L 1.046875 0 L 1.046875 -10.40625 L 3.6875 -10.40625 Z M 3.6875 0 "/></g></g></g><g fill="#9b9b9b" fill-opacity="1"><g transform="translate(102.172152, 65.347289)"><g><path d="M 5.921875 -10.5 C 6.691406 -10.5 7.453125 -10.335938 8.203125 -10.015625 C 8.953125 -9.703125 9.585938 -9.28125 10.109375 -8.75 L 8.578125 -6.9375 C 8.242188 -7.351562 7.835938 -7.679688 7.359375 -7.921875 C 6.890625 -8.160156 6.425781 -8.28125 5.96875 -8.28125 C 5.144531 -8.28125 4.453125 -7.988281 3.890625 -7.40625 C 3.335938 -6.832031 3.0625 -6.117188 3.0625 -5.265625 C 3.0625 -4.390625 3.335938 -3.660156 3.890625 -3.078125 C 4.453125 -2.492188 5.144531 -2.203125 5.96875 -2.203125 C 6.40625 -2.203125 6.859375 -2.3125 7.328125 -2.53125 C 7.796875 -2.75 8.210938 -3.046875 8.578125 -3.421875 L 10.125 -1.78125 C 9.5625 -1.207031 8.894531 -0.742188 8.125 -0.390625 C 7.351562 -0.046875 6.585938 0.125 5.828125 0.125 C 4.265625 0.125 2.960938 -0.382812 1.921875 -1.40625 C 0.878906 -2.425781 0.359375 -3.703125 0.359375 -5.234375 C 0.359375 -6.734375 0.890625 -7.984375 1.953125 -8.984375 C 3.015625 -9.992188 4.335938 -10.5 5.921875 -10.5 Z M 5.921875 -10.5 "/></g></g></g><g fill="#9b9b9b" fill-opacity="1"><g transform="translate(119.643337, 65.347289)"><g><path d="M 9.1875 -8.328125 L 3.6875 -8.328125 L 3.6875 -6.265625 L 8.65625 -6.265625 L 8.65625 -4.1875 L 3.6875 -4.1875 L 3.6875 -2.078125 L 9.359375 -2.078125 L 9.359375 0 L 1.046875 0 L 1.046875 -10.40625 L 9.1875 -10.40625 Z M 9.1875 -8.328125 "/></g></g></g><g fill="#9b9b9b" fill-opacity="1"><g transform="translate(43.113723, 78.678567)"><g><path d="M 4.4375 0 L 3.328125 0 L 3.328125 -1.6875 L 1.53125 -1.6875 L 1.53125 0 L 0.4375 0 L 0.4375 -4.328125 L 1.53125 -4.328125 L 1.53125 -2.546875 L 3.328125 -2.546875 L 3.328125 -4.328125 L 4.4375 -4.328125 Z M 4.4375 0 "/></g></g></g><g fill="#9b9b9b" fill-opacity="1"><g transform="translate(49.837709, 78.678567)"><g><path d="M 2.484375 -4.375 C 3.160156 -4.375 3.71875 -4.160156 4.15625 -3.734375 C 4.601562 -3.316406 4.828125 -2.796875 4.828125 -2.171875 C 4.828125 -1.535156 4.601562 -1.003906 4.15625 -0.578125 C 3.707031 -0.160156 3.148438 0.046875 2.484375 0.046875 C 1.816406 0.046875 1.257812 -0.160156 0.8125 -0.578125 C 0.375 -1.003906 0.15625 -1.535156 0.15625 -2.171875 C 0.15625 -2.804688 0.375 -3.332031 0.8125 -3.75 C 1.257812 -4.164062 1.816406 -4.375 2.484375 -4.375 Z M 2.5 -3.453125 C 2.164062 -3.453125 1.878906 -3.328125 1.640625 -3.078125 C 1.398438 -2.828125 1.28125 -2.519531 1.28125 -2.15625 C 1.28125 -1.800781 1.398438 -1.5 1.640625 -1.25 C 1.878906 -1 2.164062 -0.875 2.5 -0.875 C 2.832031 -0.875 3.113281 -1 3.34375 -1.25 C 3.582031 -1.5 3.703125 -1.800781 3.703125 -2.15625 C 3.703125 -2.519531 3.582031 -2.828125 3.34375 -3.078125 C 3.113281 -3.328125 2.832031 -3.453125 2.5 -3.453125 Z M 2.5 -3.453125 "/></g></g></g><g fill="#9b9b9b" fill-opacity="1"><g transform="translate(56.679116, 78.678567)"><g><path d="M 5.1875 0 L 4.21875 0 L 4.21875 -2.8125 L 3.171875 -0.4375 L 2.453125 -0.4375 L 1.421875 -2.8125 L 1.421875 0 L 0.4375 0 L 0.4375 -4.34375 L 1.640625 -4.34375 L 2.8125 -1.75 L 3.984375 -4.34375 L 5.1875 -4.34375 Z M 5.1875 0 "/></g></g></g><g fill="#9b9b9b" fill-opacity="1"><g transform="translate(64.169437, 78.678567)"><g><path d="M 3.828125 -3.46875 L 1.53125 -3.46875 L 1.53125 -2.609375 L 3.59375 -2.609375 L 3.59375 -1.734375 L 1.53125 -1.734375 L 1.53125 -0.859375 L 3.890625 -0.859375 L 3.890625 0 L 0.4375 0 L 0.4375 -4.328125 L 3.828125 -4.328125 Z M 3.828125 -3.46875 "/></g></g></g><g fill="#9b9b9b" fill-opacity="1"><g transform="translate(70.201247, 78.678567)"><g/></g></g><g fill="#9b9b9b" fill-opacity="1"><g transform="translate(73.501436, 78.678567)"><g><path d="M 3.046875 0 L 2.40625 -1.21875 L 1.53125 -1.21875 L 1.53125 0 L 0.4375 0 L 0.4375 -4.328125 L 2.375 -4.328125 C 2.945312 -4.328125 3.390625 -4.195312 3.703125 -3.9375 C 4.015625 -3.675781 4.171875 -3.304688 4.171875 -2.828125 C 4.171875 -2.148438 3.910156 -1.679688 3.390625 -1.421875 L 4.296875 0 Z M 1.53125 -2.078125 L 2.375 -2.078125 C 2.613281 -2.078125 2.796875 -2.132812 2.921875 -2.25 C 3.054688 -2.375 3.125 -2.550781 3.125 -2.78125 C 3.125 -3.007812 3.054688 -3.179688 2.921875 -3.296875 C 2.796875 -3.410156 2.613281 -3.46875 2.375 -3.46875 L 1.53125 -3.46875 Z M 1.53125 -2.078125 "/></g></g></g><g fill="#9b9b9b" fill-opacity="1"><g transform="translate(79.842254, 78.678567)"><g><path d="M 3.828125 -3.46875 L 1.53125 -3.46875 L 1.53125 -2.609375 L 3.59375 -2.609375 L 3.59375 -1.734375 L 1.53125 -1.734375 L 1.53125 -0.859375 L 3.890625 -0.859375 L 3.890625 0 L 0.4375 0 L 0.4375 -4.328125 L 3.828125 -4.328125 Z M 3.828125 -3.46875 "/></g></g></g><g fill="#9b9b9b" fill-opacity="1"><g transform="translate(85.874063, 78.678567)"><g><path d="M 0.4375 -4.328125 L 2.3125 -4.328125 C 2.875 -4.328125 3.304688 -4.195312 3.609375 -3.9375 C 3.910156 -3.675781 4.0625 -3.304688 4.0625 -2.828125 C 4.0625 -2.316406 3.910156 -1.921875 3.609375 -1.640625 C 3.304688 -1.359375 2.875 -1.21875 2.3125 -1.21875 L 1.53125 -1.21875 L 1.53125 0 L 0.4375 0 Z M 1.53125 -3.46875 L 1.53125 -2.078125 L 2.265625 -2.078125 C 2.503906 -2.078125 2.691406 -2.132812 2.828125 -2.25 C 2.960938 -2.375 3.03125 -2.550781 3.03125 -2.78125 C 3.03125 -3.007812 2.960938 -3.179688 2.828125 -3.296875 C 2.691406 -3.410156 2.503906 -3.46875 2.265625 -3.46875 Z M 1.53125 -3.46875 "/></g></g></g><g fill="#9b9b9b" fill-opacity="1"><g transform="translate(91.942957, 78.678567)"><g><path d="M 3.3125 -0.796875 L 1.421875 -0.796875 L 1.09375 0 L -0.03125 0 L 1.84375 -4.328125 L 2.96875 -4.328125 L 4.796875 0 L 3.625 0 Z M 2.984375 -1.640625 L 2.375 -3.234375 L 1.734375 -1.640625 Z M 2.984375 -1.640625 "/></g></g></g><g fill="#9b9b9b" fill-opacity="1"><g transform="translate(98.56806, 78.678567)"><g><path d="M 1.53125 0 L 0.4375 0 L 0.4375 -4.328125 L 1.53125 -4.328125 Z M 1.53125 0 "/></g></g></g><g fill="#9b9b9b" fill-opacity="1"><g transform="translate(102.399736, 78.678567)"><g><path d="M 3.046875 0 L 2.40625 -1.21875 L 1.53125 -1.21875 L 1.53125 0 L 0.4375 0 L 0.4375 -4.328125 L 2.375 -4.328125 C 2.945312 -4.328125 3.390625 -4.195312 3.703125 -3.9375 C 4.015625 -3.675781 4.171875 -3.304688 4.171875 -2.828125 C 4.171875 -2.148438 3.910156 -1.679688 3.390625 -1.421875 L 4.296875 0 Z M 1.53125 -2.078125 L 2.375 -2.078125 C 2.613281 -2.078125 2.796875 -2.132812 2.921875 -2.25 C 3.054688 -2.375 3.125 -2.550781 3.125 -2.78125 C 3.125 -3.007812 3.054688 -3.179688 2.921875 -3.296875 C 2.796875 -3.410156 2.613281 -3.46875 2.375 -3.46875 L 1.53125 -3.46875 Z M 1.53125 -2.078125 "/></g></g></g><g fill="#9b9b9b" fill-opacity="1"><g transform="translate(27.062623, 45.793797)"><g><path d="M 3.328125 -3.015625 L 1.34375 -3.015625 L 1.34375 -2.265625 L 3.140625 -2.265625 L 3.140625 -1.515625 L 1.34375 -1.515625 L 1.34375 -0.75 L 3.390625 -0.75 L 3.390625 0 L 0.375 0 L 0.375 -3.78125 L 3.328125 -3.78125 Z M 3.328125 -3.015625 "/></g></g></g><g fill="#9b9b9b" fill-opacity="1"><g transform="translate(32.316763, 45.793797)"><g><path d="M 1.828125 -3.8125 C 2.390625 -3.8125 2.882812 -3.671875 3.3125 -3.390625 L 2.953125 -2.640625 C 2.753906 -2.753906 2.539062 -2.847656 2.3125 -2.921875 C 2.09375 -3.003906 1.90625 -3.046875 1.75 -3.046875 C 1.46875 -3.046875 1.328125 -2.953125 1.328125 -2.765625 C 1.328125 -2.648438 1.394531 -2.554688 1.53125 -2.484375 C 1.664062 -2.410156 1.832031 -2.347656 2.03125 -2.296875 C 2.226562 -2.242188 2.425781 -2.179688 2.625 -2.109375 C 2.820312 -2.035156 2.988281 -1.914062 3.125 -1.75 C 3.257812 -1.582031 3.328125 -1.375 3.328125 -1.125 C 3.328125 -0.757812 3.179688 -0.472656 2.890625 -0.265625 C 2.609375 -0.0664062 2.25 0.03125 1.8125 0.03125 C 1.5 0.03125 1.191406 -0.0195312 0.890625 -0.125 C 0.585938 -0.238281 0.320312 -0.390625 0.09375 -0.578125 L 0.46875 -1.3125 C 0.65625 -1.144531 0.878906 -1.007812 1.140625 -0.90625 C 1.398438 -0.800781 1.628906 -0.75 1.828125 -0.75 C 1.984375 -0.75 2.101562 -0.773438 2.1875 -0.828125 C 2.269531 -0.878906 2.3125 -0.960938 2.3125 -1.078125 C 2.3125 -1.179688 2.257812 -1.265625 2.15625 -1.328125 C 2.0625 -1.398438 1.941406 -1.453125 1.796875 -1.484375 C 1.648438 -1.523438 1.488281 -1.570312 1.3125 -1.625 C 1.144531 -1.6875 0.988281 -1.75 0.84375 -1.8125 C 0.695312 -1.882812 0.570312 -1.992188 0.46875 -2.140625 C 0.375 -2.285156 0.328125 -2.460938 0.328125 -2.671875 C 0.328125 -3.023438 0.460938 -3.300781 0.734375 -3.5 C 1.003906 -3.707031 1.367188 -3.8125 1.828125 -3.8125 Z M 1.828125 -3.8125 "/></g></g></g><g fill="#9b9b9b" fill-opacity="1"><g transform="translate(37.409403, 45.793797)"><g><path d="M 3.265625 -3 L 2.125 -3 L 2.125 0 L 1.171875 0 L 1.171875 -3 L 0.03125 -3 L 0.03125 -3.78125 L 3.265625 -3.78125 Z M 3.265625 -3 "/></g></g></g><g fill="#9b9b9b" fill-opacity="1"><g transform="translate(42.324388, 45.793797)"><g><path d="M 0.375 -3.78125 L 2 -3.78125 C 2.59375 -3.78125 3.070312 -3.601562 3.4375 -3.25 C 3.8125 -2.90625 4 -2.453125 4 -1.890625 C 4 -1.328125 3.8125 -0.867188 3.4375 -0.515625 C 3.0625 -0.171875 2.570312 0 1.96875 0 L 0.375 0 Z M 1.34375 -3.015625 L 1.34375 -0.765625 L 2.015625 -0.765625 C 2.316406 -0.765625 2.5625 -0.867188 2.75 -1.078125 C 2.9375 -1.285156 3.03125 -1.550781 3.03125 -1.875 C 3.03125 -2.207031 2.929688 -2.476562 2.734375 -2.6875 C 2.535156 -2.90625 2.285156 -3.015625 1.984375 -3.015625 Z M 1.34375 -3.015625 "/></g></g></g><g fill="#9b9b9b" fill-opacity="1"><g transform="translate(103.544629, 45.793797)"><g><path d="M 1.65625 -3.8125 C 2.03125 -3.8125 2.335938 -3.71875 2.578125 -3.53125 C 2.816406 -3.351562 2.9375 -3.117188 2.9375 -2.828125 C 2.9375 -2.472656 2.695312 -2.054688 2.21875 -1.578125 L 1.453125 -0.765625 L 3.046875 -0.765625 L 3.046875 0 L 0.21875 0 L 0.21875 -0.625 L 1.578125 -2.046875 C 1.816406 -2.296875 1.9375 -2.515625 1.9375 -2.703125 C 1.9375 -2.804688 1.894531 -2.890625 1.8125 -2.953125 C 1.738281 -3.015625 1.640625 -3.046875 1.515625 -3.046875 C 1.203125 -3.046875 0.859375 -2.882812 0.484375 -2.5625 L 0.125 -3.25 C 0.625 -3.625 1.132812 -3.8125 1.65625 -3.8125 Z M 1.65625 -3.8125 "/></g></g></g><g fill="#9b9b9b" fill-opacity="1"><g transform="translate(108.400403, 45.793797)"><g><path d="M 1.890625 -3.8125 C 2.429688 -3.8125 2.84375 -3.644531 3.125 -3.3125 C 3.414062 -2.976562 3.5625 -2.503906 3.5625 -1.890625 C 3.5625 -1.273438 3.414062 -0.800781 3.125 -0.46875 C 2.84375 -0.132812 2.429688 0.03125 1.890625 0.03125 C 1.359375 0.03125 0.945312 -0.132812 0.65625 -0.46875 C 0.363281 -0.800781 0.21875 -1.273438 0.21875 -1.890625 C 0.21875 -2.503906 0.363281 -2.976562 0.65625 -3.3125 C 0.945312 -3.644531 1.359375 -3.8125 1.890625 -3.8125 Z M 1.890625 -3.109375 C 1.648438 -3.109375 1.472656 -3.007812 1.359375 -2.8125 C 1.253906 -2.625 1.203125 -2.316406 1.203125 -1.890625 C 1.203125 -1.460938 1.253906 -1.148438 1.359375 -0.953125 C 1.472656 -0.765625 1.648438 -0.671875 1.890625 -0.671875 C 2.128906 -0.671875 2.300781 -0.765625 2.40625 -0.953125 C 2.519531 -1.148438 2.578125 -1.460938 2.578125 -1.890625 C 2.578125 -2.316406 2.519531 -2.625 2.40625 -2.8125 C 2.300781 -3.007812 2.128906 -3.109375 1.890625 -3.109375 Z M 1.890625 -3.109375 "/></g></g></g><g fill="#9b9b9b" fill-opacity="1"><g transform="translate(113.810662, 45.793797)"><g><path d="M 1.65625 -3.8125 C 2.03125 -3.8125 2.335938 -3.71875 2.578125 -3.53125 C 2.816406 -3.351562 2.9375 -3.117188 2.9375 -2.828125 C 2.9375 -2.472656 2.695312 -2.054688 2.21875 -1.578125 L 1.453125 -0.765625 L 3.046875 -0.765625 L 3.046875 0 L 0.21875 0 L 0.21875 -0.625 L 1.578125 -2.046875 C 1.816406 -2.296875 1.9375 -2.515625 1.9375 -2.703125 C 1.9375 -2.804688 1.894531 -2.890625 1.8125 -2.953125 C 1.738281 -3.015625 1.640625 -3.046875 1.515625 -3.046875 C 1.203125 -3.046875 0.859375 -2.882812 0.484375 -2.5625 L 0.125 -3.25 C 0.625 -3.625 1.132812 -3.8125 1.65625 -3.8125 Z M 1.65625 -3.8125 "/></g></g></g><g fill="#9b9b9b" fill-opacity="1"><g transform="translate(118.666436, 45.793797)"><g><path d="M 1.6875 0 L 0.734375 0 L 0.734375 -3.015625 L 0.03125 -3.015625 L 0.03125 -3.78125 L 1.6875 -3.78125 Z M 1.6875 0 "/></g></g></g></svg>