<svg xmlns="http://www.w3.org/2000/svg" xmlns:xlink="http://www.w3.org/1999/xlink" width="200" zoomAndPan="magnify" viewBox="0 0 150 97.5" height="130" preserveAspectRatio="xMidYMid meet" version="1.0"><defs><g/><clipPath id="id1"><path d="M 69.808594 11.117188 L 110.9375 11.117188 L 110.9375 48.917969 L 69.808594 48.917969 Z M 69.808594 11.117188 " clip-rule="nonzero"/></clipPath><clipPath id="id2"><path d="M 39.007812 11.117188 L 67.023438 11.117188 L 67.023438 48.917969 L 39.007812 48.917969 Z M 39.007812 11.117188 " clip-rule="nonzero"/></clipPath></defs><g clip-path="url(#id1)"><path fill="#b6b6b6" d="M 89.765625 13.566406 C 91.046875 13.566406 92.167969 13.136719 92.789062 12.496094 L 101.320312 12.496094 C 106.628906 12.496094 110.972656 16.839844 110.972656 22.144531 C 110.972656 22.441406 110.570312 22.515625 110.449219 22.246094 C 108.984375 18.96875 105.6875 16.671875 101.882812 16.671875 L 99.421875 16.671875 C 98.640625 16.671875 97.996094 17.285156 97.953125 18.066406 L 97.78125 21.511719 L 96.9375 21.511719 L 96.9375 47 C 96.9375 48.058594 96.078125 48.917969 95.019531 48.917969 L 94.890625 48.917969 C 93.832031 48.917969 92.976562 48.058594 92.976562 47 L 92.976562 21.511719 L 92.332031 21.511719 L 92.132812 17.558594 C 92.097656 16.890625 91.628906 16.3125 90.972656 16.160156 C 90.597656 16.074219 90.191406 16.027344 89.765625 16.027344 C 88.792969 16.027344 87.910156 16.273438 87.269531 16.671875 L 85.210938 16.671875 L 85.210938 12.496094 L 86.738281 12.496094 C 87.363281 13.136719 88.480469 13.566406 89.765625 13.566406 Z M 94.957031 46.683594 C 95.394531 46.683594 95.75 46.328125 95.75 45.890625 C 95.75 45.449219 95.394531 45.09375 94.957031 45.09375 C 94.515625 45.09375 94.160156 45.449219 94.160156 45.890625 C 94.160156 46.328125 94.515625 46.683594 94.957031 46.683594 Z M 70.125 14.992188 C 70.851562 12.835938 72.722656 11.398438 74.835938 11.117188 L 73.21875 15.921875 C 73.023438 16.503906 73.335938 17.128906 73.917969 17.324219 L 76.632812 18.238281 C 77.214844 18.433594 77.839844 18.121094 78.035156 17.542969 L 79.652344 12.734375 C 81.164062 14.234375 81.789062 16.511719 81.0625 18.664062 C 80.554688 20.183594 79.472656 21.347656 78.140625 22.003906 C 76.839844 22.640625 76.019531 23.960938 76.0625 25.40625 L 76.796875 46.382812 C 76.839844 47.707031 75.824219 48.882812 74.5 48.914062 C 73.140625 48.949219 72.039062 47.832031 72.082031 46.484375 L 72.867188 23.863281 C 72.898438 22.808594 72.476562 21.789062 71.699219 21.078125 C 70.070312 19.585938 69.375 17.222656 70.125 14.992188 Z M 74.441406 46.058594 C 74.9375 46.058594 75.339844 45.65625 75.339844 45.160156 C 75.339844 44.660156 74.9375 44.257812 74.441406 44.257812 C 73.945312 44.257812 73.542969 44.664062 73.542969 45.160156 C 73.542969 45.65625 73.945312 46.058594 74.441406 46.058594 Z M 74.441406 46.058594 " fill-opacity="1" fill-rule="nonzero"/></g><g clip-path="url(#id2)"><path fill="#b6b6b6" d="M 46.160156 29.417969 C 46.382812 30.269531 47.507812 30.726562 47.507812 31.828125 C 47.507812 32.566406 46.90625 33.167969 46.160156 33.171875 L 46.152344 33.171875 C 45.410156 33.167969 44.808594 32.566406 44.808594 31.828125 C 44.808594 30.726562 45.933594 30.265625 46.152344 29.417969 C 46.152344 29.414062 46.15625 29.410156 46.15625 29.410156 C 46.160156 29.410156 46.160156 29.414062 46.160156 29.417969 Z M 67.023438 16.890625 L 67.023438 20.308594 C 67.023438 21.222656 66.582031 22.09375 65.851562 22.644531 L 53.0625 30.785156 C 52.523438 31.1875 52.203125 31.828125 52.203125 32.5 L 52.203125 35.007812 L 52.796875 35.007812 C 53.308594 35.007812 53.722656 35.421875 53.722656 35.933594 L 53.722656 47.921875 C 53.722656 48.433594 53.308594 48.847656 52.796875 48.847656 L 50.417969 48.847656 C 49.90625 48.847656 49.492188 48.433594 49.492188 47.921875 L 49.492188 35.933594 C 49.492188 35.421875 49.90625 35.007812 50.417969 35.007812 L 50.933594 35.007812 L 50.933594 32.5 C 50.933594 31.433594 51.445312 30.414062 52.300781 29.773438 L 65.089844 21.632812 C 65.503906 21.320312 65.753906 20.824219 65.753906 20.308594 L 65.753906 16.890625 C 65.753906 16.296875 65.269531 15.816406 64.671875 15.816406 L 63.703125 15.816406 L 63.703125 17.203125 C 63.703125 17.398438 63.652344 17.582031 63.5625 17.746094 C 63.539062 17.792969 63.511719 17.835938 63.484375 17.878906 C 63.421875 17.964844 63.347656 18.046875 63.265625 18.117188 C 63.15625 18.203125 63.03125 18.269531 62.898438 18.3125 C 62.832031 18.335938 62.761719 18.351562 62.6875 18.363281 L 62.066406 18.449219 L 62.066406 18.59375 C 62.066406 18.640625 62.0625 18.6875 62.058594 18.730469 C 62.058594 18.742188 62.054688 18.753906 62.054688 18.765625 C 62.046875 18.796875 62.042969 18.832031 62.035156 18.867188 C 62.03125 18.875 62.03125 18.886719 62.027344 18.894531 C 62.019531 18.933594 62.003906 18.96875 61.992188 19.007812 C 61.992188 19.011719 61.992188 19.015625 61.988281 19.015625 C 61.839844 19.410156 61.488281 19.707031 61.0625 19.78125 C 61.054688 19.785156 61.046875 19.785156 61.039062 19.785156 C 60.980469 19.796875 60.917969 19.804688 60.851562 19.804688 L 47.273438 19.804688 L 47.273438 25.953125 C 47.273438 26.515625 46.808594 26.976562 46.242188 26.976562 C 45.675781 26.976562 45.214844 26.515625 45.214844 25.953125 L 45.214844 19.804688 L 44.367188 19.804688 L 44.367188 21.566406 C 44.367188 22.078125 43.945312 22.5 43.429688 22.5 C 42.914062 22.5 42.492188 22.078125 42.492188 21.566406 L 42.492188 19.804688 L 40.222656 19.804688 C 39.929688 19.804688 39.660156 19.703125 39.449219 19.527344 C 39.421875 19.503906 39.394531 19.476562 39.363281 19.449219 C 39.328125 19.410156 39.289062 19.367188 39.257812 19.324219 C 39.230469 19.289062 39.203125 19.25 39.179688 19.210938 C 39.164062 19.179688 39.144531 19.152344 39.132812 19.121094 C 39.050781 18.960938 39.007812 18.78125 39.007812 18.59375 L 39.007812 12.394531 C 39.007812 11.726562 39.554688 11.183594 40.222656 11.183594 L 60.847656 11.183594 C 60.914062 11.183594 60.976562 11.191406 61.035156 11.199219 C 61.042969 11.203125 61.050781 11.203125 61.058594 11.203125 C 61.484375 11.277344 61.835938 11.574219 61.984375 11.96875 C 61.988281 11.972656 61.988281 11.976562 61.988281 11.976562 C 62 12.015625 62.015625 12.054688 62.023438 12.089844 C 62.027344 12.101562 62.03125 12.113281 62.03125 12.121094 C 62.039062 12.152344 62.046875 12.1875 62.050781 12.222656 C 62.050781 12.234375 62.054688 12.246094 62.054688 12.257812 C 62.058594 12.300781 62.0625 12.347656 62.0625 12.390625 C 62.0625 12.390625 62.0625 12.394531 62.0625 12.394531 L 62.0625 12.539062 L 62.683594 12.621094 C 63.265625 12.703125 63.703125 13.199219 63.703125 13.785156 L 63.703125 14.550781 L 64.671875 14.550781 C 65.96875 14.550781 67.023438 15.601562 67.023438 16.890625 Z M 60.242188 12.949219 C 60.257812 12.949219 60.269531 12.949219 60.28125 12.945312 C 60.292969 12.941406 60.304688 12.9375 60.316406 12.9375 C 60.367188 12.925781 60.417969 12.910156 60.464844 12.882812 C 60.601562 12.808594 60.695312 12.664062 60.695312 12.496094 C 60.695312 12.441406 60.683594 12.394531 60.667969 12.34375 C 60.640625 12.277344 60.605469 12.21875 60.554688 12.171875 C 60.476562 12.09375 60.367188 12.042969 60.242188 12.042969 L 41.035156 12.042969 C 40.910156 12.042969 40.796875 12.09375 40.710938 12.175781 C 40.628906 12.257812 40.578125 12.375 40.578125 12.5 C 40.578125 12.652344 40.660156 12.792969 40.78125 12.875 C 40.851562 12.921875 40.9375 12.953125 41.035156 12.953125 L 60.242188 12.953125 Z M 52.230469 46.78125 C 52.230469 46.441406 51.949219 46.164062 51.605469 46.164062 C 51.265625 46.164062 50.984375 46.441406 50.984375 46.78125 C 50.984375 47.125 51.265625 47.402344 51.605469 47.402344 C 51.949219 47.402344 52.230469 47.125 52.230469 46.78125 Z M 43.289062 23.433594 C 42.847656 23.433594 42.492188 23.789062 42.492188 24.226562 C 42.492188 24.664062 42.847656 25.019531 43.289062 25.019531 C 43.730469 25.019531 44.085938 24.664062 44.085938 24.226562 C 44.085938 23.789062 43.730469 23.433594 43.289062 23.433594 Z M 43.289062 23.433594 " fill-opacity="1" fill-rule="nonzero"/></g><g fill="#9b9b9b" fill-opacity="1"><g transform="translate(42.210456, 69.377533)"><g><path d="M 2.703125 0 L 0.71875 0 L 0.71875 -12.625 L 2.703125 -12.625 L 2.703125 -7.21875 L 4.953125 -7.21875 L 4.953125 -12.625 L 6.984375 -12.625 L 6.984375 0 L 4.953125 0 L 4.953125 -5.40625 L 2.703125 -5.40625 Z M 2.703125 0 "/></g></g></g><g fill="#9b9b9b" fill-opacity="1"><g transform="translate(50.195687, 69.377533)"><g><path d="M 7.140625 0 L 5.140625 0 L 4.796875 -2.296875 L 2.359375 -2.296875 L 2.015625 0 L 0.203125 0 L 2.21875 -12.625 L 5.125 -12.625 Z M 2.609375 -4 L 4.53125 -4 L 3.5625 -10.390625 Z M 2.609375 -4 "/></g></g></g><g fill="#9b9b9b" fill-opacity="1"><g transform="translate(57.820423, 69.377533)"><g><path d="M 2.484375 -9.140625 L 2.484375 0 L 0.703125 0 L 0.703125 -12.625 L 3.1875 -12.625 L 5.234375 -5.0625 L 5.234375 -12.625 L 7 -12.625 L 7 0 L 4.953125 0 Z M 2.484375 -9.140625 "/></g></g></g><g fill="#9b9b9b" fill-opacity="1"><g transform="translate(65.805654, 69.377533)"><g><path d="M 0.71875 -12.625 L 3.859375 -12.625 C 4.859375 -12.625 5.597656 -12.359375 6.078125 -11.828125 C 6.566406 -11.296875 6.8125 -10.519531 6.8125 -9.5 L 6.8125 -3.125 C 6.8125 -2.101562 6.566406 -1.328125 6.078125 -0.796875 C 5.597656 -0.265625 4.859375 0 3.859375 0 L 0.71875 0 Z M 2.703125 -10.8125 L 2.703125 -1.796875 L 3.828125 -1.796875 C 4.140625 -1.796875 4.382812 -1.882812 4.5625 -2.0625 C 4.738281 -2.25 4.828125 -2.570312 4.828125 -3.03125 L 4.828125 -9.59375 C 4.828125 -10.050781 4.738281 -10.367188 4.5625 -10.546875 C 4.382812 -10.722656 4.140625 -10.8125 3.828125 -10.8125 Z M 2.703125 -10.8125 "/></g></g></g><g fill="#9b9b9b" fill-opacity="1"><g transform="translate(73.448413, 69.377533)"><g><path d="M 2.578125 -4.1875 L 0.078125 -12.625 L 2.140625 -12.625 L 3.65625 -6.875 L 5.171875 -12.625 L 7.0625 -12.625 L 4.5625 -4.1875 L 4.5625 0 L 2.578125 0 Z M 2.578125 -4.1875 "/></g></g></g><g fill="#9b9b9b" fill-opacity="1"><g transform="translate(80.874869, 69.377533)"><g><path d="M 4.921875 -3.65625 L 6.28125 -12.625 L 9.03125 -12.625 L 9.03125 0 L 7.15625 0 L 7.15625 -9.046875 L 5.78125 0 L 3.90625 0 L 2.4375 -8.921875 L 2.4375 0 L 0.703125 0 L 0.703125 -12.625 L 3.46875 -12.625 Z M 4.921875 -3.65625 "/></g></g></g><g fill="#9b9b9b" fill-opacity="1"><g transform="translate(90.914925, 69.377533)"><g><path d="M 7.140625 0 L 5.140625 0 L 4.796875 -2.296875 L 2.359375 -2.296875 L 2.015625 0 L 0.203125 0 L 2.21875 -12.625 L 5.125 -12.625 Z M 2.609375 -4 L 4.53125 -4 L 3.5625 -10.390625 Z M 2.609375 -4 "/></g></g></g><g fill="#9b9b9b" fill-opacity="1"><g transform="translate(98.539662, 69.377533)"><g><path d="M 2.484375 -9.140625 L 2.484375 0 L 0.703125 0 L 0.703125 -12.625 L 3.1875 -12.625 L 5.234375 -5.0625 L 5.234375 -12.625 L 7 -12.625 L 7 0 L 4.953125 0 Z M 2.484375 -9.140625 "/></g></g></g><g fill="#9b9b9b" fill-opacity="1"><g transform="translate(51.458626, 84.402195)"><g><path d="M 1.578125 -1.5625 L 0.90625 -1.5625 L 0.90625 0 L 0.421875 0 L 0.421875 -3.84375 L 1.484375 -3.84375 C 1.867188 -3.84375 2.15625 -3.742188 2.34375 -3.546875 C 2.539062 -3.347656 2.640625 -3.0625 2.640625 -2.6875 C 2.640625 -2.445312 2.585938 -2.238281 2.484375 -2.0625 C 2.378906 -1.882812 2.226562 -1.753906 2.03125 -1.671875 L 2.78125 -0.03125 L 2.78125 0 L 2.265625 0 Z M 0.90625 -1.96875 L 1.484375 -1.96875 C 1.691406 -1.96875 1.851562 -2.03125 1.96875 -2.15625 C 2.09375 -2.289062 2.15625 -2.46875 2.15625 -2.6875 C 2.15625 -3.175781 1.929688 -3.421875 1.484375 -3.421875 L 0.90625 -3.421875 Z M 0.90625 -1.96875 "/></g></g></g><g fill="#9b9b9b" fill-opacity="1"><g transform="translate(55.210412, 84.402195)"><g><path d="M 2.25 -1.78125 L 0.890625 -1.78125 L 0.890625 -0.421875 L 2.484375 -0.421875 L 2.484375 0 L 0.421875 0 L 0.421875 -3.84375 L 2.453125 -3.84375 L 2.453125 -3.421875 L 0.890625 -3.421875 L 0.890625 -2.1875 L 2.25 -2.1875 Z M 2.25 -1.78125 "/></g></g></g><g fill="#9b9b9b" fill-opacity="1"><g transform="translate(58.777624, 84.402195)"><g><path d="M 0.890625 -1.5 L 0.890625 0 L 0.421875 0 L 0.421875 -3.84375 L 1.640625 -3.84375 C 1.992188 -3.84375 2.269531 -3.734375 2.46875 -3.515625 C 2.675781 -3.304688 2.78125 -3.023438 2.78125 -2.671875 C 2.78125 -2.296875 2.679688 -2.007812 2.484375 -1.8125 C 2.296875 -1.613281 2.023438 -1.507812 1.671875 -1.5 Z M 0.890625 -1.921875 L 1.640625 -1.921875 C 1.859375 -1.921875 2.019531 -1.984375 2.125 -2.109375 C 2.238281 -2.234375 2.296875 -2.414062 2.296875 -2.65625 C 2.296875 -2.894531 2.238281 -3.082031 2.125 -3.21875 C 2.007812 -3.351562 1.847656 -3.421875 1.640625 -3.421875 L 0.890625 -3.421875 Z M 0.890625 -1.921875 "/></g></g></g><g fill="#9b9b9b" fill-opacity="1"><g transform="translate(62.655974, 84.402195)"><g><path d="M 2.203125 -1 L 0.90625 -1 L 0.609375 0 L 0.109375 0 L 1.359375 -3.84375 L 1.765625 -3.84375 L 3 0 L 2.515625 0 Z M 1.03125 -1.421875 L 2.078125 -1.421875 L 1.5625 -3.171875 Z M 1.03125 -1.421875 "/></g></g></g><g fill="#9b9b9b" fill-opacity="1"><g transform="translate(66.65298, 84.402195)"><g><path d="M 0.921875 0 L 0.4375 0 L 0.4375 -3.84375 L 0.921875 -3.84375 Z M 0.921875 0 "/></g></g></g><g fill="#9b9b9b" fill-opacity="1"><g transform="translate(68.888622, 84.402195)"><g><path d="M 1.578125 -1.5625 L 0.90625 -1.5625 L 0.90625 0 L 0.421875 0 L 0.421875 -3.84375 L 1.484375 -3.84375 C 1.867188 -3.84375 2.15625 -3.742188 2.34375 -3.546875 C 2.539062 -3.347656 2.640625 -3.0625 2.640625 -2.6875 C 2.640625 -2.445312 2.585938 -2.238281 2.484375 -2.0625 C 2.378906 -1.882812 2.226562 -1.753906 2.03125 -1.671875 L 2.78125 -0.03125 L 2.78125 0 L 2.265625 0 Z M 0.90625 -1.96875 L 1.484375 -1.96875 C 1.691406 -1.96875 1.851562 -2.03125 1.96875 -2.15625 C 2.09375 -2.289062 2.15625 -2.46875 2.15625 -2.6875 C 2.15625 -3.175781 1.929688 -3.421875 1.484375 -3.421875 L 0.90625 -3.421875 Z M 0.90625 -1.96875 "/></g></g></g><g fill="#9b9b9b" fill-opacity="1"><g transform="translate(72.640407, 84.402195)"><g/></g></g><g fill="#9b9b9b" fill-opacity="1"><g transform="translate(74.762668, 84.402195)"><g><path d="M 2.09375 -0.96875 C 2.09375 -1.164062 2.039062 -1.3125 1.9375 -1.40625 C 1.832031 -1.507812 1.644531 -1.609375 1.375 -1.703125 C 1.101562 -1.804688 0.894531 -1.910156 0.75 -2.015625 C 0.601562 -2.117188 0.492188 -2.238281 0.421875 -2.375 C 0.359375 -2.507812 0.328125 -2.664062 0.328125 -2.84375 C 0.328125 -3.15625 0.425781 -3.40625 0.625 -3.59375 C 0.832031 -3.789062 1.097656 -3.890625 1.421875 -3.890625 C 1.648438 -3.890625 1.851562 -3.835938 2.03125 -3.734375 C 2.207031 -3.640625 2.34375 -3.5 2.4375 -3.3125 C 2.53125 -3.132812 2.578125 -2.941406 2.578125 -2.734375 L 2.09375 -2.734375 C 2.09375 -2.972656 2.035156 -3.15625 1.921875 -3.28125 C 1.804688 -3.414062 1.640625 -3.484375 1.421875 -3.484375 C 1.234375 -3.484375 1.082031 -3.425781 0.96875 -3.3125 C 0.863281 -3.207031 0.8125 -3.054688 0.8125 -2.859375 C 0.8125 -2.691406 0.867188 -2.550781 0.984375 -2.4375 C 1.097656 -2.332031 1.28125 -2.238281 1.53125 -2.15625 C 1.90625 -2.03125 2.171875 -1.875 2.328125 -1.6875 C 2.492188 -1.507812 2.578125 -1.273438 2.578125 -0.984375 C 2.578125 -0.671875 2.472656 -0.421875 2.265625 -0.234375 C 2.066406 -0.046875 1.796875 0.046875 1.453125 0.046875 C 1.222656 0.046875 1.015625 0 0.828125 -0.09375 C 0.640625 -0.1875 0.488281 -0.320312 0.375 -0.5 C 0.269531 -0.675781 0.21875 -0.878906 0.21875 -1.109375 L 0.703125 -1.109375 C 0.703125 -0.867188 0.769531 -0.679688 0.90625 -0.546875 C 1.039062 -0.421875 1.222656 -0.359375 1.453125 -0.359375 C 1.660156 -0.359375 1.816406 -0.410156 1.921875 -0.515625 C 2.035156 -0.628906 2.09375 -0.78125 2.09375 -0.96875 Z M 2.09375 -0.96875 "/></g></g></g><g fill="#9b9b9b" fill-opacity="1"><g transform="translate(78.445897, 84.402195)"><g><path d="M 2.25 -1.78125 L 0.890625 -1.78125 L 0.890625 -0.421875 L 2.484375 -0.421875 L 2.484375 0 L 0.421875 0 L 0.421875 -3.84375 L 2.453125 -3.84375 L 2.453125 -3.421875 L 0.890625 -3.421875 L 0.890625 -2.1875 L 2.25 -2.1875 Z M 2.25 -1.78125 "/></g></g></g><g fill="#9b9b9b" fill-opacity="1"><g transform="translate(82.01311, 84.402195)"><g><path d="M 1.578125 -1.5625 L 0.90625 -1.5625 L 0.90625 0 L 0.421875 0 L 0.421875 -3.84375 L 1.484375 -3.84375 C 1.867188 -3.84375 2.15625 -3.742188 2.34375 -3.546875 C 2.539062 -3.347656 2.640625 -3.0625 2.640625 -2.6875 C 2.640625 -2.445312 2.585938 -2.238281 2.484375 -2.0625 C 2.378906 -1.882812 2.226562 -1.753906 2.03125 -1.671875 L 2.78125 -0.03125 L 2.78125 0 L 2.265625 0 Z M 0.90625 -1.96875 L 1.484375 -1.96875 C 1.691406 -1.96875 1.851562 -2.03125 1.96875 -2.15625 C 2.09375 -2.289062 2.15625 -2.46875 2.15625 -2.6875 C 2.15625 -3.175781 1.929688 -3.421875 1.484375 -3.421875 L 0.90625 -3.421875 Z M 0.90625 -1.96875 "/></g></g></g><g fill="#9b9b9b" fill-opacity="1"><g transform="translate(85.764897, 84.402195)"><g><path d="M 1.515625 -0.734375 L 2.390625 -3.84375 L 2.921875 -3.84375 L 1.71875 0 L 1.296875 0 L 0.109375 -3.84375 L 0.640625 -3.84375 Z M 1.515625 -0.734375 "/></g></g></g><g fill="#9b9b9b" fill-opacity="1"><g transform="translate(89.67489, 84.402195)"><g><path d="M 0.921875 0 L 0.4375 0 L 0.4375 -3.84375 L 0.921875 -3.84375 Z M 0.921875 0 "/></g></g></g><g fill="#9b9b9b" fill-opacity="1"><g transform="translate(91.910534, 84.402195)"><g><path d="M 2.828125 -1.21875 C 2.804688 -0.8125 2.6875 -0.5 2.46875 -0.28125 C 2.257812 -0.0625 1.96875 0.046875 1.59375 0.046875 C 1.207031 0.046875 0.898438 -0.0976562 0.671875 -0.390625 C 0.441406 -0.679688 0.328125 -1.078125 0.328125 -1.578125 L 0.328125 -2.28125 C 0.328125 -2.78125 0.441406 -3.171875 0.671875 -3.453125 C 0.910156 -3.742188 1.226562 -3.890625 1.625 -3.890625 C 2 -3.890625 2.285156 -3.78125 2.484375 -3.5625 C 2.691406 -3.34375 2.804688 -3.023438 2.828125 -2.609375 L 2.34375 -2.609375 C 2.3125 -2.921875 2.238281 -3.144531 2.125 -3.28125 C 2.019531 -3.414062 1.851562 -3.484375 1.625 -3.484375 C 1.363281 -3.484375 1.160156 -3.378906 1.015625 -3.171875 C 0.878906 -2.960938 0.8125 -2.660156 0.8125 -2.265625 L 0.8125 -1.5625 C 0.8125 -1.175781 0.875 -0.878906 1 -0.671875 C 1.132812 -0.460938 1.328125 -0.359375 1.578125 -0.359375 C 1.835938 -0.359375 2.019531 -0.421875 2.125 -0.546875 C 2.238281 -0.671875 2.3125 -0.894531 2.34375 -1.21875 Z M 2.828125 -1.21875 "/></g></g></g><g fill="#9b9b9b" fill-opacity="1"><g transform="translate(95.857441, 84.402195)"><g><path d="M 2.25 -1.78125 L 0.890625 -1.78125 L 0.890625 -0.421875 L 2.484375 -0.421875 L 2.484375 0 L 0.421875 0 L 0.421875 -3.84375 L 2.453125 -3.84375 L 2.453125 -3.421875 L 0.890625 -3.421875 L 0.890625 -2.1875 L 2.25 -2.1875 Z M 2.25 -1.78125 "/></g></g></g><path stroke-linecap="round" transform="matrix(1.467715, 0, 0, 1.492347, 63.981171, 75.829536)" fill="none" stroke-linejoin="miter" d="M 0.499874 -0.000945497 L 13.23225 -0.000945497 " stroke="#d8d8d8" stroke-width="1" stroke-opacity="1" stroke-miterlimit="4"/></svg>