<svg xmlns="http://www.w3.org/2000/svg" xmlns:xlink="http://www.w3.org/1999/xlink" width="200" zoomAndPan="magnify" viewBox="0 0 150 97.5" height="130" preserveAspectRatio="xMidYMid meet" version="1.0"><defs><g/><clipPath id="id1"><path d="M 66 27.144531 L 86 27.144531 L 86 56 L 66 56 Z M 66 27.144531 " clip-rule="nonzero"/></clipPath><clipPath id="id2"><path d="M 50 42 L 102.523438 42 L 102.523438 75.644531 L 50 75.644531 Z M 50 42 " clip-rule="nonzero"/></clipPath><clipPath id="id3"><path d="M 48.050781 55 L 99 55 L 99 75.644531 L 48.050781 75.644531 Z M 48.050781 55 " clip-rule="nonzero"/></clipPath></defs><g fill="#8b8b8b" fill-opacity="1"><g transform="translate(43.193908, 38.44306)"><g><path d="M 0.203125 -0.339844 L 1.503906 -2.492188 L -0.871094 -3.925781 L 0.285156 -5.835938 L -1.40625 -6.855469 L -2.558594 -4.941406 L -3.292969 -5.386719 L -1.9375 -7.632812 L -3.855469 -8.789062 L -6.507812 -4.386719 Z M 0.203125 -0.339844 "/></g></g></g><g fill="#8b8b8b" fill-opacity="1"><g transform="translate(46.579595, 33.090772)"><g><path d="M 0.25 -0.304688 L 1.84375 -2.25 L -4.21875 -7.21875 L -5.8125 -5.273438 Z M 0.25 -0.304688 "/></g></g></g><g fill="#8b8b8b" fill-opacity="1"><g transform="translate(48.9281, 29.95401)"><g><path d="M -0.03125 0.0273438 L 2.160156 -1.84375 L 1.769531 -3.914062 L 1.574219 -4.488281 L 2.125 -4.203125 L 4.101562 -3.5 L 6.375 -5.4375 L 1.671875 -6.878906 L 1.023438 -11.179688 L -1.15625 -9.320312 L -0.816406 -7.695312 L -0.660156 -7.273438 L -1.039062 -7.503906 L -2.59375 -8.09375 L -4.855469 -6.164062 L -0.714844 -4.839844 Z M -0.03125 0.0273438 "/></g></g></g><g fill="#8b8b8b" fill-opacity="1"><g transform="translate(55.854864, 24.384134)"><g><path d="M -0.734375 -1.691406 L 2.261719 -3.410156 L 1.265625 -5.148438 L -1.730469 -3.429688 Z M -0.734375 -1.691406 "/></g></g></g><g fill="#8b8b8b" fill-opacity="1"><g transform="translate(59.871534, 22.148256)"><g><path d="M 0.363281 -0.152344 L 2.679688 -1.136719 L -0.378906 -8.351562 L -2.695312 -7.371094 Z M 0.363281 -0.152344 "/></g></g></g><g fill="#8b8b8b" fill-opacity="1"><g transform="translate(63.497207, 20.538956)"><g><path d="M 1.890625 -0.480469 L 4.324219 -1.097656 L 2.945312 -6.527344 L 4.71875 -6.976562 L 4.167969 -9.144531 L -1.863281 -7.613281 L -1.3125 -5.445312 L 0.511719 -5.910156 Z M 1.890625 -0.480469 "/></g></g></g><g fill="#8b8b8b" fill-opacity="1"><g transform="translate(70.332673, 18.985728)"><g/></g></g><g fill="#8b8b8b" fill-opacity="1"><g transform="translate(73.885684, 18.54595)"><g><path d="M 4.257812 0.402344 C 4.992188 0.433594 5.597656 0.292969 6.171875 0.0429688 L 6.34375 -2.503906 C 5.925781 -2.121094 5.25 -1.855469 4.539062 -1.886719 C 3.515625 -1.933594 2.789062 -2.746094 2.835938 -3.800781 C 2.886719 -4.839844 3.679688 -5.585938 4.695312 -5.539062 C 5.414062 -5.507812 5.953125 -5.214844 6.300781 -4.941406 L 6.410156 -7.367188 C 5.921875 -7.632812 5.371094 -7.8125 4.746094 -7.839844 C 2.359375 -7.949219 0.433594 -6.269531 0.324219 -3.921875 C 0.214844 -1.5625 1.976562 0.296875 4.257812 0.402344 Z M 4.257812 0.402344 "/></g></g></g><g fill="#8b8b8b" fill-opacity="1"><g transform="translate(80.738054, 18.780366)"><g><path d="M 4.195312 1.375 C 6.511719 2.011719 8.773438 0.78125 9.398438 -1.480469 C 10.019531 -3.726562 8.710938 -5.941406 6.394531 -6.582031 C 4.070312 -7.226562 1.808594 -6 1.1875 -3.75 C 0.5625 -1.492188 1.871094 0.730469 4.195312 1.375 Z M 4.808594 -0.84375 C 3.855469 -1.109375 3.328125 -2.0625 3.609375 -3.078125 C 3.886719 -4.074219 4.828125 -4.628906 5.78125 -4.367188 C 6.734375 -4.105469 7.25 -3.144531 6.972656 -2.144531 C 6.695312 -1.132812 5.757812 -0.582031 4.808594 -0.84375 Z M 4.808594 -0.84375 "/></g></g></g><g fill="#8b8b8b" fill-opacity="1"><g transform="translate(89.618902, 21.402053)"><g><path d="M 6.125 3.351562 L 6.0625 -0.00390625 C 6.902344 -0.0078125 7.625 -0.417969 8.109375 -1.296875 C 8.914062 -2.769531 8.410156 -4.332031 6.855469 -5.183594 L 4.113281 -6.6875 L 0.347656 0.191406 L 2.558594 1.402344 L 3.769531 -0.816406 L 3.832031 -0.78125 L 3.769531 2.0625 Z M 5.300781 -3.605469 L 5.773438 -3.347656 C 6.101562 -3.167969 6.21875 -2.839844 6.035156 -2.507812 C 5.855469 -2.171875 5.507812 -2.097656 5.175781 -2.28125 L 4.710938 -2.535156 Z M 5.300781 -3.605469 "/></g></g></g><g fill="#8b8b8b" fill-opacity="1"><g transform="translate(96.130271, 25.031518)"><g><path d="M 6.871094 0.1875 C 7.410156 0.363281 8.03125 0.273438 8.464844 -0.234375 C 9.296875 -1.203125 9.023438 -2.597656 7.664062 -3.761719 L 5.394531 -5.703125 L 0.300781 0.257812 L 2.933594 2.507812 C 4.289062 3.667969 5.800781 3.65625 6.742188 2.554688 C 7.371094 1.824219 7.382812 0.929688 6.871094 0.1875 Z M 5.945312 -2.5625 L 6.21875 -2.328125 C 6.597656 -2.003906 6.574219 -1.714844 6.394531 -1.507812 C 6.222656 -1.304688 5.921875 -1.222656 5.648438 -1.457031 L 5.273438 -1.777344 Z M 4.058594 0.753906 L 3.511719 0.285156 L 4.246094 -0.574219 L 4.851562 -0.0507812 C 5.140625 0.195312 5.144531 0.523438 4.953125 0.75 C 4.742188 0.996094 4.410156 1.058594 4.058594 0.753906 Z M 4.058594 0.753906 "/></g></g></g><g fill="#8b8b8b" fill-opacity="1"><g transform="translate(101.713152, 30.056761)"><g><path d="M 0.257812 0.300781 L 1.882812 2.21875 L 7.859375 -2.855469 L 6.230469 -4.773438 Z M 0.257812 0.300781 "/></g></g></g><g fill="#8b8b8b" fill-opacity="1"><g transform="translate(104.330367, 33.038244)"><g><path d="M 1.023438 1.660156 L 2.339844 3.800781 L 7.109375 0.863281 L 8.066406 2.417969 L 9.972656 1.246094 L 6.710938 -4.050781 L 4.804688 -2.878906 L 5.792969 -1.273438 Z M 1.023438 1.660156 "/></g></g></g><g fill="#8b8b8b" fill-opacity="1"><g transform="translate(40.063882, 86.297364)"><g><path d="M 1.171875 -2.046875 L 1.171875 0 L 0.859375 0 L 0.859375 -2.046875 L 0.078125 -2.046875 L 0.078125 -2.296875 L 1.96875 -2.296875 L 1.96875 -2.046875 Z M 1.171875 -2.046875 "/></g></g></g><g fill="#8b8b8b" fill-opacity="1"><g transform="translate(42.72978, 86.297364)"><g><path d="M 1.828125 0 L 1.828125 -1.0625 L 0.59375 -1.0625 L 0.59375 0 L 0.28125 0 L 0.28125 -2.296875 L 0.59375 -2.296875 L 0.59375 -1.328125 L 1.828125 -1.328125 L 1.828125 -2.296875 L 2.140625 -2.296875 L 2.140625 0 Z M 1.828125 0 "/></g></g></g><g fill="#8b8b8b" fill-opacity="1"><g transform="translate(45.768604, 86.297364)"><g><path d="M 0.28125 0 L 0.28125 -2.296875 L 2.015625 -2.296875 L 2.015625 -2.046875 L 0.59375 -2.046875 L 0.59375 -1.3125 L 1.921875 -1.3125 L 1.921875 -1.0625 L 0.59375 -1.0625 L 0.59375 -0.25 L 2.09375 -0.25 L 2.09375 0 Z M 0.28125 0 "/></g></g></g><g fill="#8b8b8b" fill-opacity="1"><g transform="translate(48.6226, 86.297364)"><g/></g></g><g fill="#8b8b8b" fill-opacity="1"><g transform="translate(50.172992, 86.297364)"><g><path d="M 1.828125 0 L 1.828125 -1.0625 L 0.59375 -1.0625 L 0.59375 0 L 0.28125 0 L 0.28125 -2.296875 L 0.59375 -2.296875 L 0.59375 -1.328125 L 1.828125 -1.328125 L 1.828125 -2.296875 L 2.140625 -2.296875 L 2.140625 0 Z M 1.828125 0 "/></g></g></g><g fill="#8b8b8b" fill-opacity="1"><g transform="translate(53.211816, 86.297364)"><g><path d="M 1.90625 0 L 1.640625 -0.671875 L 0.59375 -0.671875 L 0.328125 0 L 0 0 L 0.953125 -2.296875 L 1.296875 -2.296875 L 2.21875 0 Z M 1.125 -2.0625 L 1.109375 -2.015625 C 1.078125 -1.929688 1.035156 -1.816406 0.984375 -1.671875 L 0.6875 -0.921875 L 1.546875 -0.921875 L 1.25 -1.671875 C 1.21875 -1.742188 1.1875 -1.832031 1.15625 -1.9375 Z M 1.125 -2.0625 "/></g></g></g><g fill="#8b8b8b" fill-opacity="1"><g transform="translate(56.065813, 86.297364)"><g><path d="M 1.765625 0 L 0.53125 -1.953125 L 0.546875 -1.796875 L 0.546875 0 L 0.28125 0 L 0.28125 -2.296875 L 0.640625 -2.296875 L 1.875 -0.328125 C 1.863281 -0.535156 1.859375 -0.691406 1.859375 -0.796875 L 1.859375 -2.296875 L 2.140625 -2.296875 L 2.140625 0 Z M 1.765625 0 "/></g></g></g><g fill="#8b8b8b" fill-opacity="1"><g transform="translate(59.104636, 86.297364)"><g><path d="M 2.25 -1.171875 C 2.25 -0.929688 2.203125 -0.722656 2.109375 -0.546875 C 2.023438 -0.367188 1.894531 -0.234375 1.71875 -0.140625 C 1.550781 -0.046875 1.359375 0 1.140625 0 L 0.28125 0 L 0.28125 -2.296875 L 1.03125 -2.296875 C 1.425781 -2.296875 1.726562 -2.195312 1.9375 -2 C 2.144531 -1.8125 2.25 -1.535156 2.25 -1.171875 Z M 1.9375 -1.171875 C 1.9375 -1.460938 1.859375 -1.679688 1.703125 -1.828125 C 1.546875 -1.972656 1.320312 -2.046875 1.03125 -2.046875 L 0.59375 -2.046875 L 0.59375 -0.25 L 1.09375 -0.25 C 1.269531 -0.25 1.421875 -0.285156 1.546875 -0.359375 C 1.671875 -0.429688 1.765625 -0.535156 1.828125 -0.671875 C 1.898438 -0.816406 1.9375 -0.984375 1.9375 -1.171875 Z M 1.9375 -1.171875 "/></g></g></g><g fill="#8b8b8b" fill-opacity="1"><g transform="translate(62.14346, 86.297364)"><g><path d="M 1.265625 -0.953125 L 1.265625 0 L 0.953125 0 L 0.953125 -0.953125 L 0.078125 -2.296875 L 0.421875 -2.296875 L 1.109375 -1.203125 L 1.8125 -2.296875 L 2.15625 -2.296875 Z M 1.265625 -0.953125 "/></g></g></g><g fill="#8b8b8b" fill-opacity="1"><g transform="translate(64.997457, 86.297364)"><g><path d="M 2.234375 0 L 2.234375 -1.53125 C 2.234375 -1.707031 2.238281 -1.875 2.25 -2.03125 C 2.195312 -1.832031 2.144531 -1.675781 2.09375 -1.5625 L 1.5 0 L 1.28125 0 L 0.6875 -1.5625 L 0.59375 -1.84375 L 0.546875 -2.03125 L 0.546875 0 L 0.28125 0 L 0.28125 -2.296875 L 0.6875 -2.296875 L 1.296875 -0.703125 C 1.316406 -0.640625 1.335938 -0.570312 1.359375 -0.5 C 1.378906 -0.425781 1.394531 -0.375 1.40625 -0.34375 C 1.40625 -0.382812 1.421875 -0.445312 1.453125 -0.53125 C 1.484375 -0.625 1.503906 -0.679688 1.515625 -0.703125 L 2.109375 -2.296875 L 2.515625 -2.296875 L 2.515625 0 Z M 2.234375 0 "/></g></g></g><g fill="#8b8b8b" fill-opacity="1"><g transform="translate(68.407571, 86.297364)"><g><path d="M 1.90625 0 L 1.640625 -0.671875 L 0.59375 -0.671875 L 0.328125 0 L 0 0 L 0.953125 -2.296875 L 1.296875 -2.296875 L 2.21875 0 Z M 1.125 -2.0625 L 1.109375 -2.015625 C 1.078125 -1.929688 1.035156 -1.816406 0.984375 -1.671875 L 0.6875 -0.921875 L 1.546875 -0.921875 L 1.25 -1.671875 C 1.21875 -1.742188 1.1875 -1.832031 1.15625 -1.9375 Z M 1.125 -2.0625 "/></g></g></g><g fill="#8b8b8b" fill-opacity="1"><g transform="translate(71.261568, 86.297364)"><g><path d="M 1.765625 0 L 0.53125 -1.953125 L 0.546875 -1.796875 L 0.546875 0 L 0.28125 0 L 0.28125 -2.296875 L 0.640625 -2.296875 L 1.875 -0.328125 C 1.863281 -0.535156 1.859375 -0.691406 1.859375 -0.796875 L 1.859375 -2.296875 L 2.140625 -2.296875 L 2.140625 0 Z M 1.765625 0 "/></g></g></g><g fill="#8b8b8b" fill-opacity="1"><g transform="translate(74.300392, 86.297364)"><g/></g></g><g fill="#8b8b8b" fill-opacity="1"><g transform="translate(75.850781, 86.297364)"><g><path d="M 1.265625 -0.953125 L 1.265625 0 L 0.953125 0 L 0.953125 -0.953125 L 0.078125 -2.296875 L 0.421875 -2.296875 L 1.109375 -1.203125 L 1.8125 -2.296875 L 2.15625 -2.296875 Z M 1.265625 -0.953125 "/></g></g></g><g fill="#8b8b8b" fill-opacity="1"><g transform="translate(78.704778, 86.297364)"><g><path d="M 2.4375 -1.15625 C 2.4375 -0.914062 2.390625 -0.707031 2.296875 -0.53125 C 2.210938 -0.351562 2.082031 -0.210938 1.90625 -0.109375 C 1.738281 -0.015625 1.535156 0.03125 1.296875 0.03125 C 1.054688 0.03125 0.847656 -0.015625 0.671875 -0.109375 C 0.503906 -0.203125 0.375 -0.335938 0.28125 -0.515625 C 0.195312 -0.703125 0.15625 -0.914062 0.15625 -1.15625 C 0.15625 -1.53125 0.253906 -1.816406 0.453125 -2.015625 C 0.660156 -2.222656 0.941406 -2.328125 1.296875 -2.328125 C 1.535156 -2.328125 1.738281 -2.28125 1.90625 -2.1875 C 2.082031 -2.101562 2.210938 -1.96875 2.296875 -1.78125 C 2.390625 -1.601562 2.4375 -1.394531 2.4375 -1.15625 Z M 2.125 -1.15625 C 2.125 -1.445312 2.050781 -1.671875 1.90625 -1.828125 C 1.757812 -1.992188 1.554688 -2.078125 1.296875 -2.078125 C 1.035156 -2.078125 0.832031 -1.992188 0.6875 -1.828125 C 0.539062 -1.671875 0.46875 -1.445312 0.46875 -1.15625 C 0.46875 -0.875 0.539062 -0.644531 0.6875 -0.46875 C 0.832031 -0.300781 1.035156 -0.21875 1.296875 -0.21875 C 1.566406 -0.21875 1.769531 -0.300781 1.90625 -0.46875 C 2.050781 -0.632812 2.125 -0.863281 2.125 -1.15625 Z M 2.125 -1.15625 "/></g></g></g><g fill="#8b8b8b" fill-opacity="1"><g transform="translate(81.930065, 86.297364)"><g><path d="M 1.1875 0.03125 C 1 0.03125 0.832031 0 0.6875 -0.0625 C 0.550781 -0.132812 0.445312 -0.234375 0.375 -0.359375 C 0.300781 -0.492188 0.265625 -0.65625 0.265625 -0.84375 L 0.265625 -2.296875 L 0.5625 -2.296875 L 0.5625 -0.859375 C 0.5625 -0.648438 0.613281 -0.488281 0.71875 -0.375 C 0.832031 -0.269531 0.988281 -0.21875 1.1875 -0.21875 C 1.394531 -0.21875 1.554688 -0.273438 1.671875 -0.390625 C 1.785156 -0.503906 1.84375 -0.671875 1.84375 -0.890625 L 1.84375 -2.296875 L 2.15625 -2.296875 L 2.15625 -0.859375 C 2.15625 -0.679688 2.113281 -0.523438 2.03125 -0.390625 C 1.957031 -0.253906 1.847656 -0.148438 1.703125 -0.078125 C 1.554688 -0.00390625 1.382812 0.03125 1.1875 0.03125 Z M 1.1875 0.03125 "/></g></g></g><g fill="#8b8b8b" fill-opacity="1"><g transform="translate(84.968889, 86.297364)"><g/></g></g><g fill="#8b8b8b" fill-opacity="1"><g transform="translate(86.519281, 86.297364)"><g><path d="M 1.296875 -2.078125 C 1.035156 -2.078125 0.832031 -1.992188 0.6875 -1.828125 C 0.550781 -1.671875 0.484375 -1.445312 0.484375 -1.15625 C 0.484375 -0.875 0.554688 -0.644531 0.703125 -0.46875 C 0.847656 -0.300781 1.050781 -0.21875 1.3125 -0.21875 C 1.632812 -0.21875 1.875 -0.378906 2.03125 -0.703125 L 2.28125 -0.578125 C 2.1875 -0.378906 2.050781 -0.226562 1.875 -0.125 C 1.707031 -0.0195312 1.515625 0.03125 1.296875 0.03125 C 1.054688 0.03125 0.851562 -0.015625 0.6875 -0.109375 C 0.519531 -0.203125 0.390625 -0.335938 0.296875 -0.515625 C 0.210938 -0.703125 0.171875 -0.914062 0.171875 -1.15625 C 0.171875 -1.53125 0.269531 -1.816406 0.46875 -2.015625 C 0.664062 -2.222656 0.941406 -2.328125 1.296875 -2.328125 C 1.535156 -2.328125 1.738281 -2.28125 1.90625 -2.1875 C 2.070312 -2.09375 2.191406 -1.953125 2.265625 -1.765625 L 1.96875 -1.671875 C 1.914062 -1.804688 1.828125 -1.90625 1.703125 -1.96875 C 1.585938 -2.039062 1.453125 -2.078125 1.296875 -2.078125 Z M 1.296875 -2.078125 "/></g></g></g><g fill="#8b8b8b" fill-opacity="1"><g transform="translate(89.558105, 86.297364)"><g><path d="M 1.90625 0 L 1.640625 -0.671875 L 0.59375 -0.671875 L 0.328125 0 L 0 0 L 0.953125 -2.296875 L 1.296875 -2.296875 L 2.21875 0 Z M 1.125 -2.0625 L 1.109375 -2.015625 C 1.078125 -1.929688 1.035156 -1.816406 0.984375 -1.671875 L 0.6875 -0.921875 L 1.546875 -0.921875 L 1.25 -1.671875 C 1.21875 -1.742188 1.1875 -1.832031 1.15625 -1.9375 Z M 1.125 -2.0625 "/></g></g></g><g fill="#8b8b8b" fill-opacity="1"><g transform="translate(92.412102, 86.297364)"><g><path d="M 1.765625 0 L 0.53125 -1.953125 L 0.546875 -1.796875 L 0.546875 0 L 0.28125 0 L 0.28125 -2.296875 L 0.640625 -2.296875 L 1.875 -0.328125 C 1.863281 -0.535156 1.859375 -0.691406 1.859375 -0.796875 L 1.859375 -2.296875 L 2.140625 -2.296875 L 2.140625 0 Z M 1.765625 0 "/></g></g></g><g fill="#8b8b8b" fill-opacity="1"><g transform="translate(95.450926, 86.297364)"><g/></g></g><g fill="#8b8b8b" fill-opacity="1"><g transform="translate(97.001317, 86.297364)"><g><path d="M 1.171875 -2.046875 L 1.171875 0 L 0.859375 0 L 0.859375 -2.046875 L 0.078125 -2.046875 L 0.078125 -2.296875 L 1.96875 -2.296875 L 1.96875 -2.046875 Z M 1.171875 -2.046875 "/></g></g></g><g fill="#8b8b8b" fill-opacity="1"><g transform="translate(99.667215, 86.297364)"><g><path d="M 1.90625 0 L 1.296875 -0.953125 L 0.59375 -0.953125 L 0.59375 0 L 0.28125 0 L 0.28125 -2.296875 L 1.359375 -2.296875 C 1.617188 -2.296875 1.816406 -2.238281 1.953125 -2.125 C 2.097656 -2.007812 2.171875 -1.847656 2.171875 -1.640625 C 2.171875 -1.472656 2.117188 -1.328125 2.015625 -1.203125 C 1.921875 -1.085938 1.785156 -1.015625 1.609375 -0.984375 L 2.265625 0 Z M 1.859375 -1.640625 C 1.859375 -1.773438 1.8125 -1.875 1.71875 -1.9375 C 1.625 -2.007812 1.492188 -2.046875 1.328125 -2.046875 L 0.59375 -2.046875 L 0.59375 -1.203125 L 1.34375 -1.203125 C 1.5 -1.203125 1.625 -1.238281 1.71875 -1.3125 C 1.8125 -1.394531 1.859375 -1.503906 1.859375 -1.640625 Z M 1.859375 -1.640625 "/></g></g></g><g fill="#8b8b8b" fill-opacity="1"><g transform="translate(102.706039, 86.297364)"><g><path d="M 1.1875 0.03125 C 1 0.03125 0.832031 0 0.6875 -0.0625 C 0.550781 -0.132812 0.445312 -0.234375 0.375 -0.359375 C 0.300781 -0.492188 0.265625 -0.65625 0.265625 -0.84375 L 0.265625 -2.296875 L 0.5625 -2.296875 L 0.5625 -0.859375 C 0.5625 -0.648438 0.613281 -0.488281 0.71875 -0.375 C 0.832031 -0.269531 0.988281 -0.21875 1.1875 -0.21875 C 1.394531 -0.21875 1.554688 -0.273438 1.671875 -0.390625 C 1.785156 -0.503906 1.84375 -0.671875 1.84375 -0.890625 L 1.84375 -2.296875 L 2.15625 -2.296875 L 2.15625 -0.859375 C 2.15625 -0.679688 2.113281 -0.523438 2.03125 -0.390625 C 1.957031 -0.253906 1.847656 -0.148438 1.703125 -0.078125 C 1.554688 -0.00390625 1.382812 0.03125 1.1875 0.03125 Z M 1.1875 0.03125 "/></g></g></g><g fill="#8b8b8b" fill-opacity="1"><g transform="translate(105.744863, 86.297364)"><g><path d="M 2.078125 -0.640625 C 2.078125 -0.421875 1.992188 -0.253906 1.828125 -0.140625 C 1.660156 -0.0234375 1.425781 0.03125 1.125 0.03125 C 0.5625 0.03125 0.238281 -0.160156 0.15625 -0.546875 L 0.453125 -0.609375 C 0.484375 -0.472656 0.554688 -0.367188 0.671875 -0.296875 C 0.785156 -0.234375 0.941406 -0.203125 1.140625 -0.203125 C 1.335938 -0.203125 1.488281 -0.238281 1.59375 -0.3125 C 1.707031 -0.382812 1.765625 -0.488281 1.765625 -0.625 C 1.765625 -0.695312 1.75 -0.753906 1.71875 -0.796875 C 1.6875 -0.847656 1.640625 -0.890625 1.578125 -0.921875 C 1.515625 -0.953125 1.4375 -0.976562 1.34375 -1 C 1.257812 -1.019531 1.164062 -1.039062 1.0625 -1.0625 C 0.882812 -1.101562 0.75 -1.144531 0.65625 -1.1875 C 0.5625 -1.226562 0.484375 -1.269531 0.421875 -1.3125 C 0.367188 -1.363281 0.328125 -1.421875 0.296875 -1.484375 C 0.273438 -1.554688 0.265625 -1.632812 0.265625 -1.71875 C 0.265625 -1.914062 0.335938 -2.066406 0.484375 -2.171875 C 0.640625 -2.273438 0.859375 -2.328125 1.140625 -2.328125 C 1.398438 -2.328125 1.597656 -2.285156 1.734375 -2.203125 C 1.867188 -2.128906 1.960938 -2 2.015625 -1.8125 L 1.71875 -1.75 C 1.6875 -1.875 1.617188 -1.960938 1.515625 -2.015625 C 1.421875 -2.066406 1.289062 -2.09375 1.125 -2.09375 C 0.945312 -2.09375 0.804688 -2.0625 0.703125 -2 C 0.609375 -1.945312 0.5625 -1.859375 0.5625 -1.734375 C 0.5625 -1.660156 0.578125 -1.597656 0.609375 -1.546875 C 0.648438 -1.503906 0.707031 -1.46875 0.78125 -1.4375 C 0.851562 -1.40625 0.992188 -1.367188 1.203125 -1.328125 C 1.273438 -1.304688 1.34375 -1.285156 1.40625 -1.265625 C 1.476562 -1.253906 1.546875 -1.234375 1.609375 -1.203125 C 1.679688 -1.179688 1.742188 -1.15625 1.796875 -1.125 C 1.847656 -1.09375 1.894531 -1.054688 1.9375 -1.015625 C 1.976562 -0.972656 2.007812 -0.921875 2.03125 -0.859375 C 2.0625 -0.796875 2.078125 -0.722656 2.078125 -0.640625 Z M 2.078125 -0.640625 "/></g></g></g><g fill="#8b8b8b" fill-opacity="1"><g transform="translate(108.59886, 86.297364)"><g><path d="M 1.171875 -2.046875 L 1.171875 0 L 0.859375 0 L 0.859375 -2.046875 L 0.078125 -2.046875 L 0.078125 -2.296875 L 1.96875 -2.296875 L 1.96875 -2.046875 Z M 1.171875 -2.046875 "/></g></g></g><path fill="#c1c5c8" d="M 101.007812 71.882812 L 83.28125 71.882812 L 89.515625 42.707031 L 92.152344 42.707031 L 101.007812 55.339844 Z M 101.007812 71.882812 " fill-opacity="1" fill-rule="nonzero"/><path fill="#e6e6e6" d="M 77.367188 50.6875 L 80.332031 60.457031 C 80.332031 60.457031 79.785156 61.410156 77.78125 62.027344 C 75.777344 62.640625 74.796875 62.160156 74.796875 62.160156 L 71.832031 52.386719 L 70.765625 45.40625 C 70.363281 45.472656 69.960938 45.242188 69.828125 44.835938 C 69.699219 44.394531 69.9375 43.925781 70.382812 43.792969 L 70.515625 43.75 C 70.515625 43.75 72.183594 43.234375 72.09375 43.265625 C 71.996094 43.296875 73.675781 42.78125 73.675781 42.78125 L 73.804688 42.738281 C 74.242188 42.605469 74.710938 42.847656 74.839844 43.296875 C 74.960938 43.703125 74.765625 44.132812 74.382812 44.296875 Z M 98.371094 55.351562 L 89.515625 42.714844 L 80.65625 55.351562 L 80.65625 71.894531 L 98.382812 71.894531 L 98.382812 55.351562 Z M 98.371094 55.351562 " fill-opacity="1" fill-rule="nonzero"/><g clip-path="url(#id1)"><path fill="#c1c5c8" d="M 70.015625 30.960938 L 69.578125 32.417969 L 72.804688 43.058594 L 71.375 43.496094 L 68.152344 32.859375 L 66.984375 31.890625 L 66.550781 27.589844 L 67.988281 27.148438 Z M 77.09375 37.226562 C 77.09375 37.238281 77.105469 37.238281 77.105469 37.25 C 77.183594 37.371094 77.269531 37.503906 77.355469 37.613281 C 78.109375 38.796875 78.164062 39.820312 77.964844 41.210938 C 77.769531 42.574219 76.320312 52.882812 75.984375 55.351562 L 80.558594 55.351562 C 81.015625 52.101562 82.28125 43.121094 82.457031 41.859375 C 82.640625 40.511719 82.957031 39.566406 83.9375 38.664062 C 85.289062 37.699219 86.105469 36.054688 85.929688 34.273438 C 85.746094 32.375 84.492188 30.839844 82.824219 30.222656 L 83.140625 33.5625 C 83.230469 34.515625 82.542969 35.371094 81.582031 35.460938 L 80.558594 35.558594 C 79.613281 35.648438 78.761719 34.957031 78.675781 33.988281 L 78.371094 30.839844 C 77.050781 31.804688 76.246094 33.417969 76.410156 35.175781 C 76.472656 35.910156 76.714844 36.613281 77.09375 37.226562 Z M 77.09375 37.226562 " fill-opacity="1" fill-rule="nonzero"/></g><path fill="#79929b" d="M 89.992188 51.203125 L 62.496094 51.203125 L 62.496094 46.886719 L 89.992188 46.886719 C 89.992188 46.886719 90.40625 47.085938 90.40625 49.050781 C 90.40625 51.015625 89.992188 51.203125 89.992188 51.203125 Z M 89.992188 51.203125 " fill-opacity="1" fill-rule="nonzero"/><path fill="#c1c5c8" d="M 70.65625 71.882812 L 52.933594 71.882812 L 59.164062 42.714844 L 61.800781 42.714844 L 70.65625 55.351562 Z M 70.65625 71.882812 " fill-opacity="1" fill-rule="nonzero"/><g clip-path="url(#id2)"><path fill="#e6e6e6" d="M 68.019531 71.882812 L 50.296875 71.882812 L 50.296875 55.351562 L 59.164062 42.714844 L 68.019531 55.351562 Z M 72.28125 75.640625 L 102.523438 75.640625 L 102.523438 71.894531 L 72.28125 71.894531 Z M 72.28125 75.640625 " fill-opacity="1" fill-rule="nonzero"/></g><g clip-path="url(#id3)"><path fill="#79929b" d="M 98.371094 71.882812 L 70.65625 71.882812 L 70.65625 55.351562 L 98.371094 55.351562 Z M 58.03125 57.007812 L 55.351562 57.007812 C 55.199219 57.007812 55.066406 57.140625 55.066406 57.296875 L 55.066406 61.511719 C 55.066406 61.664062 55.199219 61.796875 55.351562 61.796875 L 58.03125 61.796875 C 58.183594 61.796875 58.3125 61.664062 58.3125 61.511719 L 58.3125 57.304688 C 58.3125 57.140625 58.183594 57.007812 58.03125 57.007812 Z M 62.355469 57.007812 L 59.675781 57.007812 C 59.523438 57.007812 59.390625 57.140625 59.390625 57.296875 L 59.390625 61.511719 C 59.390625 61.664062 59.523438 61.796875 59.675781 61.796875 L 62.355469 61.796875 C 62.507812 61.796875 62.636719 61.664062 62.636719 61.511719 L 62.636719 57.304688 C 62.636719 57.140625 62.507812 57.007812 62.355469 57.007812 Z M 58.03125 63.476562 L 55.351562 63.476562 C 55.199219 63.476562 55.066406 63.609375 55.066406 63.761719 L 55.066406 67.964844 C 55.066406 68.121094 55.199219 68.25 55.351562 68.25 L 58.03125 68.25 C 58.183594 68.25 58.3125 68.121094 58.3125 67.964844 L 58.3125 63.761719 C 58.3125 63.609375 58.183594 63.476562 58.03125 63.476562 Z M 62.355469 63.476562 L 59.675781 63.476562 C 59.523438 63.476562 59.390625 63.609375 59.390625 63.761719 L 59.390625 67.964844 C 59.390625 68.121094 59.523438 68.25 59.675781 68.25 L 62.355469 68.25 C 62.507812 68.25 62.636719 68.121094 62.636719 67.964844 L 62.636719 63.761719 C 62.636719 63.609375 62.507812 63.476562 62.355469 63.476562 Z M 48.050781 75.640625 L 72.28125 75.640625 L 72.28125 71.894531 L 48.050781 71.894531 Z M 48.050781 75.640625 " fill-opacity="1" fill-rule="nonzero"/></g></svg>