<svg xmlns="http://www.w3.org/2000/svg" xmlns:xlink="http://www.w3.org/1999/xlink" width="300" zoomAndPan="magnify" viewBox="0 0 224.87999 52.499999" height="70" preserveAspectRatio="xMidYMid meet" version="1.0"><defs><g/><clipPath id="id1"><path d="M 179.609375 1.894531 L 223.761719 1.894531 L 223.761719 50.1875 L 179.609375 50.1875 Z M 179.609375 1.894531 " clip-rule="nonzero"/></clipPath></defs><g clip-path="url(#id1)"><path fill="#047afe" d="M 193.265625 33.210938 C 197.410156 27.28125 190.644531 13.175781 190.644531 13.175781 C 188.285156 12.441406 186.566406 10.257812 186.566406 7.660156 C 186.566406 4.472656 189.15625 1.894531 192.363281 1.894531 C 194.109375 1.894531 195.671875 2.660156 196.730469 3.875 L 200.875 1.894531 C 200.777344 3.296875 198.90625 4.40625 197.535156 5.035156 C 197.710938 5.371094 197.855469 5.730469 197.964844 6.105469 C 197.992188 6.222656 199.933594 8.066406 199.933594 8.066406 L 198.109375 8.566406 C 197.855469 10.171875 196.933594 11.5625 195.632812 12.441406 C 199.058594 14.246094 201.71875 16.824219 203.3125 19.5 L 203.3125 11.019531 L 220.816406 11.019531 L 220.816406 28.449219 L 204.507812 28.449219 C 208.28125 29.300781 211.738281 31.617188 215.070312 41.109375 C 219.484375 38.445312 223.863281 40.578125 223.863281 40.578125 L 212.941406 49.085938 C 212.941406 49.085938 210.175781 37.160156 201.058594 34.765625 C 200.796875 34.699219 200.546875 34.609375 200.3125 34.523438 C 199.226562 38.007812 196.515625 41.554688 186.566406 42.449219 C 189.0625 46.835938 185.691406 50.1875 185.691406 50.1875 L 179.304688 38.453125 C 179.304688 38.453125 189.109375 39.128906 193.265625 33.210938 Z M 200.320312 24.511719 C 201.226562 24.847656 202.253906 25.058594 203.292969 25.195312 C 203.847656 25.261719 204.398438 25.3125 204.953125 25.332031 C 208.128906 25.476562 211.039062 25.003906 211.039062 25.003906 C 213.777344 26.21875 216.980469 26.007812 217.136719 25.003906 C 217.300781 23.949219 215.195312 23.949219 214.621094 23.96875 C 217.484375 23.804688 218.425781 23.5625 218.464844 22.800781 C 218.503906 21.941406 216.921875 21.824219 214.089844 22.078125 C 216.339844 21.546875 217.84375 21.402344 217.445312 20.308594 C 217.058594 19.21875 214.449219 20.050781 213.148438 20.726562 C 213.410156 19.574219 213.300781 18.601562 212.4375 18.523438 C 211.574219 18.445312 211 19.082031 210.699219 22.078125 C 208.222656 22.078125 205.914062 21.699219 204.078125 21.054688 C 203.796875 20.957031 203.535156 20.851562 203.28125 20.746094 C 202.292969 20.308594 201.496094 19.789062 200.933594 19.199219 C 200.855469 19.113281 200.777344 19.027344 200.699219 18.9375 L 197.109375 22.734375 C 198.136719 23.46875 199.253906 24.105469 200.320312 24.511719 Z M 196.097656 8.132812 C 196.664062 8.132812 197.117188 7.679688 197.117188 7.121094 C 197.117188 6.558594 196.664062 6.105469 196.097656 6.105469 C 195.535156 6.105469 195.078125 6.558594 195.078125 7.121094 C 195.078125 7.679688 195.535156 8.132812 196.097656 8.132812 Z M 196.097656 8.132812 " fill-opacity="1" fill-rule="nonzero"/></g><g fill="#202020" fill-opacity="1"><g transform="translate(0.512076, 32.783949)"><g><path d="M 17.140625 -18.46875 L 17.140625 0 L 13.4375 0 L 13.4375 -7.859375 L 5.53125 -7.859375 L 5.53125 0 L 1.828125 0 L 1.828125 -18.46875 L 5.53125 -18.46875 L 5.53125 -10.875 L 13.4375 -10.875 L 13.4375 -18.46875 Z M 17.140625 -18.46875 "/></g></g></g><g fill="#202020" fill-opacity="1"><g transform="translate(21.325671, 32.783949)"><g><path d="M 5.53125 -15.46875 L 5.53125 -10.84375 L 11.75 -10.84375 L 11.75 -7.90625 L 5.53125 -7.90625 L 5.53125 -3.015625 L 12.53125 -3.015625 L 12.53125 0 L 1.828125 0 L 1.828125 -18.484375 L 12.53125 -18.484375 L 12.53125 -15.46875 Z M 5.53125 -15.46875 "/></g></g></g><g fill="#202020" fill-opacity="1"><g transform="translate(37.24682, 32.783949)"><g><path d="M 12.875 0 L 8.890625 -6.21875 L 5.265625 0 L 1.078125 0 L 6.90625 -9.3125 L 1 -18.46875 L 5.265625 -18.46875 L 9.265625 -12.28125 L 12.859375 -18.46875 L 17.03125 -18.46875 L 11.25 -9.171875 L 17.140625 0 Z M 12.875 0 "/></g></g></g><g fill="#202020" fill-opacity="1"><g transform="translate(57.240603, 32.783949)"><g><path d="M 13.140625 -3.515625 L 5.796875 -3.515625 L 4.578125 0 L 0.6875 0 L 7.328125 -18.484375 L 11.640625 -18.484375 L 18.28125 0 L 14.359375 0 Z M 12.140625 -6.484375 L 9.46875 -14.203125 L 6.796875 -6.484375 Z M 12.140625 -6.484375 "/></g></g></g><g fill="#202020" fill-opacity="1"><g transform="translate(78.027752, 32.783949)"><g/></g></g><g fill="#202020" fill-opacity="1"><g transform="translate(86.173902, 32.783949)"><g><path d="M 14.390625 -18.46875 L 14.390625 -15.46875 L 9.46875 -15.46875 L 9.46875 0 L 5.765625 0 L 5.765625 -15.46875 L 0.84375 -15.46875 L 0.84375 -18.46875 Z M 14.390625 -18.46875 "/></g></g></g><g fill="#202020" fill-opacity="1"><g transform="translate(103.285104, 32.783949)"><g><path d="M 10.390625 0.1875 C 8.660156 0.1875 7.070312 -0.21875 5.625 -1.03125 C 4.1875 -1.84375 3.039062 -2.96875 2.1875 -4.40625 C 1.34375 -5.84375 0.921875 -7.46875 0.921875 -9.28125 C 0.921875 -11.082031 1.34375 -12.703125 2.1875 -14.140625 C 3.039062 -15.578125 4.1875 -16.703125 5.625 -17.515625 C 7.070312 -18.328125 8.660156 -18.734375 10.390625 -18.734375 C 12.140625 -18.734375 13.734375 -18.328125 15.171875 -17.515625 C 16.609375 -16.703125 17.742188 -15.578125 18.578125 -14.140625 C 19.421875 -12.703125 19.84375 -11.082031 19.84375 -9.28125 C 19.84375 -7.46875 19.421875 -5.84375 18.578125 -4.40625 C 17.742188 -2.96875 16.601562 -1.84375 15.15625 -1.03125 C 13.707031 -0.21875 12.117188 0.1875 10.390625 0.1875 Z M 10.390625 -3.125 C 11.503906 -3.125 12.484375 -3.375 13.328125 -3.875 C 14.179688 -4.375 14.84375 -5.09375 15.3125 -6.03125 C 15.789062 -6.96875 16.03125 -8.050781 16.03125 -9.28125 C 16.03125 -10.519531 15.789062 -11.601562 15.3125 -12.53125 C 14.84375 -13.457031 14.179688 -14.164062 13.328125 -14.65625 C 12.484375 -15.144531 11.503906 -15.390625 10.390625 -15.390625 C 9.285156 -15.390625 8.300781 -15.144531 7.4375 -14.65625 C 6.582031 -14.164062 5.914062 -13.457031 5.4375 -12.53125 C 4.96875 -11.601562 4.734375 -10.519531 4.734375 -9.28125 C 4.734375 -8.050781 4.96875 -6.96875 5.4375 -6.03125 C 5.914062 -5.09375 6.582031 -4.375 7.4375 -3.875 C 8.300781 -3.375 9.285156 -3.125 10.390625 -3.125 Z M 10.390625 -3.125 "/></g></g></g><g fill="#202020" fill-opacity="1"><g transform="translate(125.896985, 32.783949)"><g><path d="M 10.390625 0.1875 C 8.660156 0.1875 7.070312 -0.21875 5.625 -1.03125 C 4.1875 -1.84375 3.039062 -2.96875 2.1875 -4.40625 C 1.34375 -5.84375 0.921875 -7.46875 0.921875 -9.28125 C 0.921875 -11.082031 1.34375 -12.703125 2.1875 -14.140625 C 3.039062 -15.578125 4.1875 -16.703125 5.625 -17.515625 C 7.070312 -18.328125 8.660156 -18.734375 10.390625 -18.734375 C 12.140625 -18.734375 13.734375 -18.328125 15.171875 -17.515625 C 16.609375 -16.703125 17.742188 -15.578125 18.578125 -14.140625 C 19.421875 -12.703125 19.84375 -11.082031 19.84375 -9.28125 C 19.84375 -7.46875 19.421875 -5.84375 18.578125 -4.40625 C 17.742188 -2.96875 16.601562 -1.84375 15.15625 -1.03125 C 13.707031 -0.21875 12.117188 0.1875 10.390625 0.1875 Z M 10.390625 -3.125 C 11.503906 -3.125 12.484375 -3.375 13.328125 -3.875 C 14.179688 -4.375 14.84375 -5.09375 15.3125 -6.03125 C 15.789062 -6.96875 16.03125 -8.050781 16.03125 -9.28125 C 16.03125 -10.519531 15.789062 -11.601562 15.3125 -12.53125 C 14.84375 -13.457031 14.179688 -14.164062 13.328125 -14.65625 C 12.484375 -15.144531 11.503906 -15.390625 10.390625 -15.390625 C 9.285156 -15.390625 8.300781 -15.144531 7.4375 -14.65625 C 6.582031 -14.164062 5.914062 -13.457031 5.4375 -12.53125 C 4.96875 -11.601562 4.734375 -10.519531 4.734375 -9.28125 C 4.734375 -8.050781 4.96875 -6.96875 5.4375 -6.03125 C 5.914062 -5.09375 6.582031 -4.375 7.4375 -3.875 C 8.300781 -3.375 9.285156 -3.125 10.390625 -3.125 Z M 10.390625 -3.125 "/></g></g></g><g fill="#202020" fill-opacity="1"><g transform="translate(148.508867, 32.783949)"><g><path d="M 5.53125 -2.9375 L 11.609375 -2.9375 L 11.609375 0 L 1.828125 0 L 1.828125 -18.46875 L 5.53125 -18.46875 Z M 5.53125 -2.9375 "/></g></g></g><g fill="#202020" fill-opacity="1"><g transform="translate(162.499493, 32.783949)"><g><path d="M 8.203125 0.1875 C 6.910156 0.1875 5.75 -0.03125 4.71875 -0.46875 C 3.6875 -0.914062 2.867188 -1.550781 2.265625 -2.375 C 1.671875 -3.207031 1.363281 -4.1875 1.34375 -5.3125 L 5.3125 -5.3125 C 5.363281 -4.550781 5.628906 -3.953125 6.109375 -3.515625 C 6.597656 -3.078125 7.269531 -2.859375 8.125 -2.859375 C 8.988281 -2.859375 9.664062 -3.0625 10.15625 -3.46875 C 10.65625 -3.882812 10.90625 -4.429688 10.90625 -5.109375 C 10.90625 -5.648438 10.734375 -6.097656 10.390625 -6.453125 C 10.054688 -6.804688 9.640625 -7.082031 9.140625 -7.28125 C 8.640625 -7.488281 7.945312 -7.71875 7.0625 -7.96875 C 5.863281 -8.3125 4.890625 -8.65625 4.140625 -9 C 3.390625 -9.34375 2.742188 -9.863281 2.203125 -10.5625 C 1.671875 -11.257812 1.40625 -12.191406 1.40625 -13.359375 C 1.40625 -14.453125 1.675781 -15.40625 2.21875 -16.21875 C 2.769531 -17.03125 3.535156 -17.648438 4.515625 -18.078125 C 5.503906 -18.515625 6.632812 -18.734375 7.90625 -18.734375 C 9.8125 -18.734375 11.359375 -18.269531 12.546875 -17.34375 C 13.742188 -16.414062 14.398438 -15.125 14.515625 -13.46875 L 10.453125 -13.46875 C 10.410156 -14.101562 10.140625 -14.625 9.640625 -15.03125 C 9.140625 -15.445312 8.472656 -15.65625 7.640625 -15.65625 C 6.921875 -15.65625 6.34375 -15.46875 5.90625 -15.09375 C 5.476562 -14.726562 5.265625 -14.191406 5.265625 -13.484375 C 5.265625 -12.992188 5.425781 -12.582031 5.75 -12.25 C 6.082031 -11.925781 6.488281 -11.660156 6.96875 -11.453125 C 7.457031 -11.253906 8.140625 -11.023438 9.015625 -10.765625 C 10.210938 -10.410156 11.191406 -10.054688 11.953125 -9.703125 C 12.710938 -9.347656 13.363281 -8.816406 13.90625 -8.109375 C 14.457031 -7.410156 14.734375 -6.488281 14.734375 -5.34375 C 14.734375 -4.351562 14.476562 -3.4375 13.96875 -2.59375 C 13.457031 -1.75 12.707031 -1.070312 11.71875 -0.5625 C 10.726562 -0.0625 9.554688 0.1875 8.203125 0.1875 Z M 8.203125 0.1875 "/></g></g></g><g fill="#726d96" fill-opacity="1"><g transform="translate(3.288901, 45.971686)"><g><path d="M 4.324219 -6.222656 L 0.0195312 -6.222656 L 0.0195312 -5.277344 L 1.667969 -5.277344 L 1.667969 0 L 2.675781 0 L 2.675781 -5.277344 L 4.324219 -5.277344 Z M 4.324219 -6.222656 "/></g></g></g><g fill="#726d96" fill-opacity="1"><g transform="translate(11.896838, 45.971686)"><g><path d="M 3.640625 0.0820312 C 5.402344 0.0820312 6.832031 -1.347656 6.832031 -3.109375 C 6.832031 -4.875 5.402344 -6.304688 3.640625 -6.304688 C 1.875 -6.304688 0.445312 -4.875 0.445312 -3.109375 C 0.445312 -1.347656 1.875 0.0820312 3.640625 0.0820312 Z M 3.640625 -0.921875 C 2.414062 -0.921875 1.453125 -1.875 1.453125 -3.109375 C 1.453125 -4.34375 2.414062 -5.296875 3.640625 -5.296875 C 4.875 -5.296875 5.828125 -4.34375 5.828125 -3.109375 C 5.828125 -1.875 4.875 -0.921875 3.640625 -0.921875 Z M 3.640625 -0.921875 "/></g></g></g><g fill="#726d96" fill-opacity="1"><g transform="translate(23.439068, 45.971686)"><g><path d="M 3.640625 0.0820312 C 5.402344 0.0820312 6.832031 -1.347656 6.832031 -3.109375 C 6.832031 -4.875 5.402344 -6.304688 3.640625 -6.304688 C 1.875 -6.304688 0.445312 -4.875 0.445312 -3.109375 C 0.445312 -1.347656 1.875 0.0820312 3.640625 0.0820312 Z M 3.640625 -0.921875 C 2.414062 -0.921875 1.453125 -1.875 1.453125 -3.109375 C 1.453125 -4.34375 2.414062 -5.296875 3.640625 -5.296875 C 4.875 -5.296875 5.828125 -4.34375 5.828125 -3.109375 C 5.828125 -1.875 4.875 -0.921875 3.640625 -0.921875 Z M 3.640625 -0.921875 "/></g></g></g><g fill="#726d96" fill-opacity="1"><g transform="translate(34.981299, 45.971686)"><g><path d="M 1.699219 -0.945312 L 1.699219 -6.222656 L 0.683594 -6.222656 L 0.683594 0 L 3.886719 0 L 3.886719 -0.945312 Z M 1.699219 -0.945312 "/></g></g></g><g fill="#726d96" fill-opacity="1"><g transform="translate(43.18486, 45.971686)"><g><path d="M 2.414062 0.0820312 C 3.535156 0.0820312 4.449219 -0.582031 4.449219 -1.699219 C 4.449219 -3.910156 1.503906 -3.371094 1.503906 -4.644531 C 1.503906 -5.132812 1.886719 -5.359375 2.34375 -5.359375 C 2.757812 -5.359375 3.132812 -5.175781 3.410156 -4.820312 L 4.125 -5.472656 C 3.734375 -5.960938 3.078125 -6.304688 2.34375 -6.304688 C 1.367188 -6.304688 0.488281 -5.691406 0.488281 -4.574219 C 0.488281 -2.507812 3.433594 -3.015625 3.433594 -1.699219 C 3.433594 -1.191406 3.007812 -0.890625 2.425781 -0.890625 C 1.792969 -0.890625 1.316406 -1.246094 1.097656 -1.773438 L 0.226562 -1.246094 C 0.589844 -0.464844 1.421875 0.0820312 2.414062 0.0820312 Z M 2.414062 0.0820312 "/></g></g></g><g fill="#726d96" fill-opacity="1"><g transform="translate(52.155688, 45.971686)"><g/></g></g><g fill="#726d96" fill-opacity="1"><g transform="translate(58.907649, 45.971686)"><g><path d="M 6.136719 -6.222656 L 3.949219 -1.347656 L 1.773438 -6.222656 L 0.683594 -6.222656 L 0.683594 0 L 1.699219 0 L 1.699219 -4.28125 L 3.609375 0 L 4.28125 0 L 6.210938 -4.292969 L 6.210938 0 L 7.214844 0 L 7.214844 -6.222656 Z M 6.136719 -6.222656 "/></g></g></g><g fill="#726d96" fill-opacity="1"><g transform="translate(71.071993, 45.971686)"><g><path d="M 4.457031 0 L 5.558594 0 L 3.308594 -6.222656 L 2.175781 -6.222656 L -0.0742188 0 L 1.027344 0 L 1.472656 -1.316406 L 4.011719 -1.316406 Z M 1.773438 -2.207031 L 2.746094 -5.113281 L 3.722656 -2.207031 Z M 1.773438 -2.207031 "/></g></g></g><g fill="#726d96" fill-opacity="1"><g transform="translate(80.820467, 45.971686)"><g><path d="M 5.152344 -6.222656 L 5.152344 -1.605469 L 1.699219 -6.222656 L 0.683594 -6.222656 L 0.683594 0 L 1.699219 0 L 1.699219 -4.625 L 5.144531 0 L 6.160156 0 L 6.160156 -6.222656 Z M 5.152344 -6.222656 "/></g></g></g><g fill="#726d96" fill-opacity="1"><g transform="translate(91.927218, 45.971686)"><g><path d="M 3.109375 0.0820312 C 4.519531 0.0820312 5.578125 -0.820312 5.578125 -2.023438 L 5.578125 -6.222656 L 4.5625 -6.222656 L 4.5625 -2.199219 C 4.5625 -1.429688 3.941406 -0.859375 3.109375 -0.859375 C 2.28125 -0.859375 1.667969 -1.429688 1.667969 -2.199219 L 1.667969 -6.222656 L 0.652344 -6.222656 L 0.652344 -2.023438 C 0.652344 -0.820312 1.699219 0.0820312 3.109375 0.0820312 Z M 3.109375 0.0820312 "/></g></g></g><g fill="#726d96" fill-opacity="1"><g transform="translate(102.422223, 45.971686)"><g><path d="M 4.304688 -5.296875 L 4.304688 -6.222656 L 0.734375 -6.222656 L 0.734375 0 L 1.753906 0 L 1.753906 -2.644531 L 3.960938 -2.644531 L 3.960938 -3.578125 L 1.753906 -3.578125 L 1.753906 -5.296875 Z M 4.304688 -5.296875 "/></g></g></g><g fill="#726d96" fill-opacity="1"><g transform="translate(111.123472, 45.971686)"><g><path d="M 4.304688 -5.296875 L 4.304688 -6.222656 L 0.734375 -6.222656 L 0.734375 0 L 4.304688 0 L 4.304688 -0.921875 L 1.753906 -0.921875 L 1.753906 -2.644531 L 3.960938 -2.644531 L 3.960938 -3.578125 L 1.753906 -3.578125 L 1.753906 -5.296875 Z M 4.304688 -5.296875 "/></g></g></g><g fill="#726d96" fill-opacity="1"><g transform="translate(120.218727, 45.971686)"><g><path d="M 3.640625 0.0820312 C 4.851562 0.0820312 5.898438 -0.589844 6.4375 -1.585938 L 5.566406 -2.054688 C 5.203125 -1.367188 4.480469 -0.921875 3.640625 -0.921875 C 2.414062 -0.921875 1.453125 -1.875 1.453125 -3.109375 C 1.453125 -4.34375 2.414062 -5.296875 3.640625 -5.296875 C 4.480469 -5.296875 5.203125 -4.851562 5.566406 -4.167969 L 6.4375 -4.632812 C 5.898438 -5.628906 4.851562 -6.304688 3.640625 -6.304688 C 1.875 -6.304688 0.445312 -4.875 0.445312 -3.109375 C 0.445312 -1.347656 1.875 0.0820312 3.640625 0.0820312 Z M 3.640625 0.0820312 "/></g></g></g><g fill="#726d96" fill-opacity="1"><g transform="translate(131.221787, 45.971686)"><g><path d="M 4.324219 -6.222656 L 0.0195312 -6.222656 L 0.0195312 -5.277344 L 1.667969 -5.277344 L 1.667969 0 L 2.675781 0 L 2.675781 -5.277344 L 4.324219 -5.277344 Z M 4.324219 -6.222656 "/></g></g></g><g fill="#726d96" fill-opacity="1"><g transform="translate(139.829724, 45.971686)"><g><path d="M 3.109375 0.0820312 C 4.519531 0.0820312 5.578125 -0.820312 5.578125 -2.023438 L 5.578125 -6.222656 L 4.5625 -6.222656 L 4.5625 -2.199219 C 4.5625 -1.429688 3.941406 -0.859375 3.109375 -0.859375 C 2.28125 -0.859375 1.667969 -1.429688 1.667969 -2.199219 L 1.667969 -6.222656 L 0.652344 -6.222656 L 0.652344 -2.023438 C 0.652344 -0.820312 1.699219 0.0820312 3.109375 0.0820312 Z M 3.109375 0.0820312 "/></g></g></g><g fill="#726d96" fill-opacity="1"><g transform="translate(150.324728, 45.971686)"><g><path d="M 3.566406 -2.707031 C 4.34375 -2.871094 4.914062 -3.554688 4.914062 -4.394531 C 4.914062 -5.414062 4.125 -6.222656 3.121094 -6.222656 L 0.683594 -6.222656 L 0.683594 0 L 1.699219 0 L 1.699219 -2.613281 L 2.5625 -2.613281 L 4.210938 0 L 5.351562 0 Z M 1.699219 -3.496094 L 1.699219 -5.277344 L 2.996094 -5.277344 C 3.523438 -5.277344 3.917969 -4.914062 3.917969 -4.386719 C 3.917969 -3.855469 3.523438 -3.496094 2.996094 -3.496094 Z M 1.699219 -3.496094 "/></g></g></g><g fill="#726d96" fill-opacity="1"><g transform="translate(159.959143, 45.971686)"><g><path d="M 4.304688 -5.296875 L 4.304688 -6.222656 L 0.734375 -6.222656 L 0.734375 0 L 4.304688 0 L 4.304688 -0.921875 L 1.753906 -0.921875 L 1.753906 -2.644531 L 3.960938 -2.644531 L 3.960938 -3.578125 L 1.753906 -3.578125 L 1.753906 -5.296875 Z M 4.304688 -5.296875 "/></g></g></g><g fill="#726d96" fill-opacity="1"><g transform="translate(169.054399, 45.971686)"><g><path d="M 3.566406 -2.707031 C 4.34375 -2.871094 4.914062 -3.554688 4.914062 -4.394531 C 4.914062 -5.414062 4.125 -6.222656 3.121094 -6.222656 L 0.683594 -6.222656 L 0.683594 0 L 1.699219 0 L 1.699219 -2.613281 L 2.5625 -2.613281 L 4.210938 0 L 5.351562 0 Z M 1.699219 -3.496094 L 1.699219 -5.277344 L 2.996094 -5.277344 C 3.523438 -5.277344 3.917969 -4.914062 3.917969 -4.386719 C 3.917969 -3.855469 3.523438 -3.496094 2.996094 -3.496094 Z M 1.699219 -3.496094 "/></g></g></g></svg>