<svg xmlns="http://www.w3.org/2000/svg" xmlns:xlink="http://www.w3.org/1999/xlink" width="300" zoomAndPan="magnify" viewBox="0 0 224.87999 52.499999" height="70" preserveAspectRatio="xMidYMid meet" version="1.0"><defs><g/><clipPath id="id1"><path d="M 179.609375 1.894531 L 223.761719 1.894531 L 223.761719 50.1875 L 179.609375 50.1875 Z M 179.609375 1.894531 " clip-rule="nonzero"/></clipPath><clipPath id="id2"><path d="M 44 37 L 58 37 L 58 52.003906 L 44 52.003906 Z M 44 37 " clip-rule="nonzero"/></clipPath><clipPath id="id3"><path d="M 61 37 L 81 37 L 81 52.003906 L 61 52.003906 Z M 61 37 " clip-rule="nonzero"/></clipPath><clipPath id="id4"><path d="M 83 37 L 103 37 L 103 52.003906 L 83 52.003906 Z M 83 37 " clip-rule="nonzero"/></clipPath><clipPath id="id5"><path d="M 107 37 L 118 37 L 118 52.003906 L 107 52.003906 Z M 107 37 " clip-rule="nonzero"/></clipPath><clipPath id="id6"><path d="M 121 37 L 135 37 L 135 52.003906 L 121 52.003906 Z M 121 37 " clip-rule="nonzero"/></clipPath></defs><g clip-path="url(#id1)"><path fill="#047afe" d="M 193.265625 33.210938 C 197.410156 27.28125 190.644531 13.175781 190.644531 13.175781 C 188.285156 12.441406 186.566406 10.257812 186.566406 7.660156 C 186.566406 4.472656 189.15625 1.894531 192.363281 1.894531 C 194.109375 1.894531 195.671875 2.660156 196.730469 3.875 L 200.875 1.894531 C 200.777344 3.296875 198.90625 4.40625 197.535156 5.035156 C 197.710938 5.371094 197.855469 5.730469 197.964844 6.105469 C 197.992188 6.222656 199.933594 8.066406 199.933594 8.066406 L 198.109375 8.566406 C 197.855469 10.171875 196.933594 11.5625 195.632812 12.441406 C 199.058594 14.246094 201.71875 16.824219 203.3125 19.5 L 203.3125 11.019531 L 220.816406 11.019531 L 220.816406 28.449219 L 204.507812 28.449219 C 208.28125 29.300781 211.738281 31.617188 215.070312 41.109375 C 219.484375 38.445312 223.863281 40.578125 223.863281 40.578125 L 212.941406 49.085938 C 212.941406 49.085938 210.175781 37.160156 201.058594 34.765625 C 200.796875 34.699219 200.546875 34.609375 200.3125 34.523438 C 199.226562 38.007812 196.515625 41.554688 186.566406 42.449219 C 189.0625 46.835938 185.691406 50.1875 185.691406 50.1875 L 179.304688 38.453125 C 179.304688 38.453125 189.109375 39.128906 193.265625 33.210938 Z M 200.320312 24.511719 C 201.226562 24.847656 202.253906 25.058594 203.292969 25.195312 C 203.847656 25.261719 204.398438 25.3125 204.953125 25.332031 C 208.128906 25.476562 211.039062 25.003906 211.039062 25.003906 C 213.777344 26.21875 216.980469 26.007812 217.136719 25.003906 C 217.300781 23.949219 215.195312 23.949219 214.621094 23.96875 C 217.484375 23.804688 218.425781 23.5625 218.464844 22.800781 C 218.503906 21.941406 216.921875 21.824219 214.089844 22.078125 C 216.339844 21.546875 217.84375 21.402344 217.445312 20.308594 C 217.058594 19.21875 214.449219 20.050781 213.148438 20.726562 C 213.410156 19.574219 213.300781 18.601562 212.4375 18.523438 C 211.574219 18.445312 211 19.082031 210.699219 22.078125 C 208.222656 22.078125 205.914062 21.699219 204.078125 21.054688 C 203.796875 20.957031 203.535156 20.851562 203.28125 20.746094 C 202.292969 20.308594 201.496094 19.789062 200.933594 19.199219 C 200.855469 19.113281 200.777344 19.027344 200.699219 18.9375 L 197.109375 22.734375 C 198.136719 23.46875 199.253906 24.105469 200.320312 24.511719 Z M 196.097656 8.132812 C 196.664062 8.132812 197.117188 7.679688 197.117188 7.121094 C 197.117188 6.558594 196.664062 6.105469 196.097656 6.105469 C 195.535156 6.105469 195.078125 6.558594 195.078125 7.121094 C 195.078125 7.679688 195.535156 8.132812 196.097656 8.132812 Z M 196.097656 8.132812 " fill-opacity="1" fill-rule="nonzero"/></g><g fill="#f4f6fc" fill-opacity="1"><g transform="translate(51.619762, 32.023192)"><g><path d="M 17.1875 -18.515625 L 17.1875 0 L 13.484375 0 L 13.484375 -7.875 L 5.546875 -7.875 L 5.546875 0 L 1.828125 0 L 1.828125 -18.515625 L 5.546875 -18.515625 L 5.546875 -10.90625 L 13.484375 -10.90625 L 13.484375 -18.515625 Z M 17.1875 -18.515625 "/></g></g></g><g fill="#f4f6fc" fill-opacity="1"><g transform="translate(72.49096, 32.023192)"><g><path d="M 5.546875 -15.515625 L 5.546875 -10.875 L 11.78125 -10.875 L 11.78125 -7.9375 L 5.546875 -7.9375 L 5.546875 -3.03125 L 12.578125 -3.03125 L 12.578125 0 L 1.828125 0 L 1.828125 -18.546875 L 12.578125 -18.546875 L 12.578125 -15.515625 Z M 5.546875 -15.515625 "/></g></g></g><g fill="#f4f6fc" fill-opacity="1"><g transform="translate(88.456169, 32.023192)"><g><path d="M 12.921875 0 L 8.921875 -6.234375 L 5.28125 0 L 1.09375 0 L 6.921875 -9.34375 L 1.015625 -18.515625 L 5.28125 -18.515625 L 9.28125 -12.3125 L 12.890625 -18.515625 L 17.09375 -18.515625 L 11.28125 -9.203125 L 17.1875 0 Z M 12.921875 0 "/></g></g></g><g fill="#f4f6fc" fill-opacity="1"><g transform="translate(108.505284, 32.023192)"><g><path d="M 13.1875 -3.53125 L 5.8125 -3.53125 L 4.59375 0 L 0.6875 0 L 7.34375 -18.546875 L 11.671875 -18.546875 L 18.328125 0 L 14.40625 0 Z M 12.171875 -6.5 L 9.5 -14.25 L 6.8125 -6.5 Z M 12.171875 -6.5 "/></g></g></g><g clip-path="url(#id2)"><g fill="#f4f6fc" fill-opacity="1"><g transform="translate(43.215432, 56.014833)"><g><path d="M 14.4375 -18.515625 L 14.4375 -15.515625 L 9.5 -15.515625 L 9.5 0 L 5.78125 0 L 5.78125 -15.515625 L 0.84375 -15.515625 L 0.84375 -18.515625 Z M 14.4375 -18.515625 "/></g></g></g></g><g clip-path="url(#id3)"><g fill="#f4f6fc" fill-opacity="1"><g transform="translate(60.373989, 56.014833)"><g><path d="M 10.421875 0.1875 C 8.691406 0.1875 7.097656 -0.21875 5.640625 -1.03125 C 4.191406 -1.84375 3.039062 -2.96875 2.1875 -4.40625 C 1.34375 -5.851562 0.921875 -7.488281 0.921875 -9.3125 C 0.921875 -11.113281 1.34375 -12.734375 2.1875 -14.171875 C 3.039062 -15.617188 4.191406 -16.75 5.640625 -17.5625 C 7.097656 -18.375 8.691406 -18.78125 10.421875 -18.78125 C 12.171875 -18.78125 13.765625 -18.375 15.203125 -17.5625 C 16.648438 -16.75 17.789062 -15.617188 18.625 -14.171875 C 19.46875 -12.734375 19.890625 -11.113281 19.890625 -9.3125 C 19.890625 -7.488281 19.46875 -5.851562 18.625 -4.40625 C 17.789062 -2.96875 16.648438 -1.84375 15.203125 -1.03125 C 13.753906 -0.21875 12.160156 0.1875 10.421875 0.1875 Z M 10.421875 -3.125 C 11.535156 -3.125 12.515625 -3.375 13.359375 -3.875 C 14.210938 -4.382812 14.878906 -5.109375 15.359375 -6.046875 C 15.835938 -6.984375 16.078125 -8.070312 16.078125 -9.3125 C 16.078125 -10.550781 15.835938 -11.632812 15.359375 -12.5625 C 14.878906 -13.488281 14.210938 -14.195312 13.359375 -14.6875 C 12.515625 -15.1875 11.535156 -15.4375 10.421875 -15.4375 C 9.304688 -15.4375 8.320312 -15.1875 7.46875 -14.6875 C 6.613281 -14.195312 5.945312 -13.488281 5.46875 -12.5625 C 4.988281 -11.632812 4.75 -10.550781 4.75 -9.3125 C 4.75 -8.070312 4.988281 -6.984375 5.46875 -6.046875 C 5.945312 -5.109375 6.613281 -4.382812 7.46875 -3.875 C 8.320312 -3.375 9.304688 -3.125 10.421875 -3.125 Z M 10.421875 -3.125 "/></g></g></g></g><g clip-path="url(#id4)"><g fill="#f4f6fc" fill-opacity="1"><g transform="translate(83.048479, 56.014833)"><g><path d="M 10.421875 0.1875 C 8.691406 0.1875 7.097656 -0.21875 5.640625 -1.03125 C 4.191406 -1.84375 3.039062 -2.96875 2.1875 -4.40625 C 1.34375 -5.851562 0.921875 -7.488281 0.921875 -9.3125 C 0.921875 -11.113281 1.34375 -12.734375 2.1875 -14.171875 C 3.039062 -15.617188 4.191406 -16.75 5.640625 -17.5625 C 7.097656 -18.375 8.691406 -18.78125 10.421875 -18.78125 C 12.171875 -18.78125 13.765625 -18.375 15.203125 -17.5625 C 16.648438 -16.75 17.789062 -15.617188 18.625 -14.171875 C 19.46875 -12.734375 19.890625 -11.113281 19.890625 -9.3125 C 19.890625 -7.488281 19.46875 -5.851562 18.625 -4.40625 C 17.789062 -2.96875 16.648438 -1.84375 15.203125 -1.03125 C 13.753906 -0.21875 12.160156 0.1875 10.421875 0.1875 Z M 10.421875 -3.125 C 11.535156 -3.125 12.515625 -3.375 13.359375 -3.875 C 14.210938 -4.382812 14.878906 -5.109375 15.359375 -6.046875 C 15.835938 -6.984375 16.078125 -8.070312 16.078125 -9.3125 C 16.078125 -10.550781 15.835938 -11.632812 15.359375 -12.5625 C 14.878906 -13.488281 14.210938 -14.195312 13.359375 -14.6875 C 12.515625 -15.1875 11.535156 -15.4375 10.421875 -15.4375 C 9.304688 -15.4375 8.320312 -15.1875 7.46875 -14.6875 C 6.613281 -14.195312 5.945312 -13.488281 5.46875 -12.5625 C 4.988281 -11.632812 4.75 -10.550781 4.75 -9.3125 C 4.75 -8.070312 4.988281 -6.984375 5.46875 -6.046875 C 5.945312 -5.109375 6.613281 -4.382812 7.46875 -3.875 C 8.320312 -3.375 9.304688 -3.125 10.421875 -3.125 Z M 10.421875 -3.125 "/></g></g></g></g><g clip-path="url(#id5)"><g fill="#f4f6fc" fill-opacity="1"><g transform="translate(105.722967, 56.014833)"><g><path d="M 5.546875 -2.9375 L 11.640625 -2.9375 L 11.640625 0 L 1.828125 0 L 1.828125 -18.515625 L 5.546875 -18.515625 Z M 5.546875 -2.9375 "/></g></g></g></g><g clip-path="url(#id6)"><g fill="#f4f6fc" fill-opacity="1"><g transform="translate(119.752292, 56.014833)"><g><path d="M 8.21875 0.1875 C 6.925781 0.1875 5.765625 -0.03125 4.734375 -0.46875 C 3.703125 -0.914062 2.882812 -1.554688 2.28125 -2.390625 C 1.675781 -3.222656 1.367188 -4.203125 1.359375 -5.328125 L 5.328125 -5.328125 C 5.378906 -4.566406 5.648438 -3.960938 6.140625 -3.515625 C 6.628906 -3.078125 7.296875 -2.859375 8.140625 -2.859375 C 9.003906 -2.859375 9.6875 -3.066406 10.1875 -3.484375 C 10.6875 -3.898438 10.9375 -4.445312 10.9375 -5.125 C 10.9375 -5.664062 10.765625 -6.113281 10.421875 -6.46875 C 10.085938 -6.820312 9.664062 -7.097656 9.15625 -7.296875 C 8.65625 -7.503906 7.960938 -7.734375 7.078125 -7.984375 C 5.878906 -8.335938 4.90625 -8.6875 4.15625 -9.03125 C 3.40625 -9.375 2.757812 -9.894531 2.21875 -10.59375 C 1.675781 -11.289062 1.40625 -12.222656 1.40625 -13.390625 C 1.40625 -14.492188 1.675781 -15.453125 2.21875 -16.265625 C 2.769531 -17.078125 3.539062 -17.695312 4.53125 -18.125 C 5.519531 -18.5625 6.65625 -18.78125 7.9375 -18.78125 C 9.84375 -18.78125 11.390625 -18.316406 12.578125 -17.390625 C 13.773438 -16.460938 14.4375 -15.164062 14.5625 -13.5 L 10.484375 -13.5 C 10.441406 -14.132812 10.171875 -14.660156 9.671875 -15.078125 C 9.171875 -15.492188 8.503906 -15.703125 7.671875 -15.703125 C 6.941406 -15.703125 6.359375 -15.515625 5.921875 -15.140625 C 5.492188 -14.773438 5.28125 -14.238281 5.28125 -13.53125 C 5.28125 -13.03125 5.441406 -12.617188 5.765625 -12.296875 C 6.097656 -11.972656 6.503906 -11.707031 6.984375 -11.5 C 7.472656 -11.300781 8.160156 -11.066406 9.046875 -10.796875 C 10.242188 -10.441406 11.222656 -10.085938 11.984375 -9.734375 C 12.753906 -9.378906 13.410156 -8.847656 13.953125 -8.140625 C 14.503906 -7.429688 14.78125 -6.503906 14.78125 -5.359375 C 14.78125 -4.367188 14.519531 -3.445312 14 -2.59375 C 13.488281 -1.75 12.738281 -1.070312 11.75 -0.5625 C 10.757812 -0.0625 9.582031 0.1875 8.21875 0.1875 Z M 8.21875 0.1875 "/></g></g></g></g><g fill="#c8c8c8" fill-opacity="1"><g transform="translate(3.288901, 45.971686)"><g><path d="M 4.324219 -6.222656 L 0.0195312 -6.222656 L 0.0195312 -5.277344 L 1.667969 -5.277344 L 1.667969 0 L 2.675781 0 L 2.675781 -5.277344 L 4.324219 -5.277344 Z M 4.324219 -6.222656 "/></g></g></g><g fill="#c8c8c8" fill-opacity="1"><g transform="translate(11.896838, 45.971686)"><g><path d="M 3.640625 0.0820312 C 5.402344 0.0820312 6.832031 -1.347656 6.832031 -3.109375 C 6.832031 -4.875 5.402344 -6.304688 3.640625 -6.304688 C 1.875 -6.304688 0.445312 -4.875 0.445312 -3.109375 C 0.445312 -1.347656 1.875 0.0820312 3.640625 0.0820312 Z M 3.640625 -0.921875 C 2.414062 -0.921875 1.453125 -1.875 1.453125 -3.109375 C 1.453125 -4.34375 2.414062 -5.296875 3.640625 -5.296875 C 4.875 -5.296875 5.828125 -4.34375 5.828125 -3.109375 C 5.828125 -1.875 4.875 -0.921875 3.640625 -0.921875 Z M 3.640625 -0.921875 "/></g></g></g><g fill="#c8c8c8" fill-opacity="1"><g transform="translate(23.439068, 45.971686)"><g><path d="M 3.640625 0.0820312 C 5.402344 0.0820312 6.832031 -1.347656 6.832031 -3.109375 C 6.832031 -4.875 5.402344 -6.304688 3.640625 -6.304688 C 1.875 -6.304688 0.445312 -4.875 0.445312 -3.109375 C 0.445312 -1.347656 1.875 0.0820312 3.640625 0.0820312 Z M 3.640625 -0.921875 C 2.414062 -0.921875 1.453125 -1.875 1.453125 -3.109375 C 1.453125 -4.34375 2.414062 -5.296875 3.640625 -5.296875 C 4.875 -5.296875 5.828125 -4.34375 5.828125 -3.109375 C 5.828125 -1.875 4.875 -0.921875 3.640625 -0.921875 Z M 3.640625 -0.921875 "/></g></g></g><g fill="#c8c8c8" fill-opacity="1"><g transform="translate(34.981299, 45.971686)"><g><path d="M 1.699219 -0.945312 L 1.699219 -6.222656 L 0.683594 -6.222656 L 0.683594 0 L 3.886719 0 L 3.886719 -0.945312 Z M 1.699219 -0.945312 "/></g></g></g><g fill="#c8c8c8" fill-opacity="1"><g transform="translate(43.18486, 45.971686)"><g><path d="M 2.414062 0.0820312 C 3.535156 0.0820312 4.449219 -0.582031 4.449219 -1.699219 C 4.449219 -3.910156 1.503906 -3.371094 1.503906 -4.644531 C 1.503906 -5.132812 1.886719 -5.359375 2.34375 -5.359375 C 2.757812 -5.359375 3.132812 -5.175781 3.410156 -4.820312 L 4.125 -5.472656 C 3.734375 -5.960938 3.078125 -6.304688 2.34375 -6.304688 C 1.367188 -6.304688 0.488281 -5.691406 0.488281 -4.574219 C 0.488281 -2.507812 3.433594 -3.015625 3.433594 -1.699219 C 3.433594 -1.191406 3.007812 -0.890625 2.425781 -0.890625 C 1.792969 -0.890625 1.316406 -1.246094 1.097656 -1.773438 L 0.226562 -1.246094 C 0.589844 -0.464844 1.421875 0.0820312 2.414062 0.0820312 Z M 2.414062 0.0820312 "/></g></g></g><g fill="#c8c8c8" fill-opacity="1"><g transform="translate(52.155688, 45.971686)"><g/></g></g><g fill="#c8c8c8" fill-opacity="1"><g transform="translate(58.907649, 45.971686)"><g><path d="M 6.136719 -6.222656 L 3.949219 -1.347656 L 1.773438 -6.222656 L 0.683594 -6.222656 L 0.683594 0 L 1.699219 0 L 1.699219 -4.28125 L 3.609375 0 L 4.28125 0 L 6.210938 -4.292969 L 6.210938 0 L 7.214844 0 L 7.214844 -6.222656 Z M 6.136719 -6.222656 "/></g></g></g><g fill="#c8c8c8" fill-opacity="1"><g transform="translate(71.071993, 45.971686)"><g><path d="M 4.457031 0 L 5.558594 0 L 3.308594 -6.222656 L 2.175781 -6.222656 L -0.0742188 0 L 1.027344 0 L 1.472656 -1.316406 L 4.011719 -1.316406 Z M 1.773438 -2.207031 L 2.746094 -5.113281 L 3.722656 -2.207031 Z M 1.773438 -2.207031 "/></g></g></g><g fill="#c8c8c8" fill-opacity="1"><g transform="translate(80.820467, 45.971686)"><g><path d="M 5.152344 -6.222656 L 5.152344 -1.605469 L 1.699219 -6.222656 L 0.683594 -6.222656 L 0.683594 0 L 1.699219 0 L 1.699219 -4.625 L 5.144531 0 L 6.160156 0 L 6.160156 -6.222656 Z M 5.152344 -6.222656 "/></g></g></g><g fill="#c8c8c8" fill-opacity="1"><g transform="translate(91.927218, 45.971686)"><g><path d="M 3.109375 0.0820312 C 4.519531 0.0820312 5.578125 -0.820312 5.578125 -2.023438 L 5.578125 -6.222656 L 4.5625 -6.222656 L 4.5625 -2.199219 C 4.5625 -1.429688 3.941406 -0.859375 3.109375 -0.859375 C 2.28125 -0.859375 1.667969 -1.429688 1.667969 -2.199219 L 1.667969 -6.222656 L 0.652344 -6.222656 L 0.652344 -2.023438 C 0.652344 -0.820312 1.699219 0.0820312 3.109375 0.0820312 Z M 3.109375 0.0820312 "/></g></g></g><g fill="#c8c8c8" fill-opacity="1"><g transform="translate(102.422223, 45.971686)"><g><path d="M 4.304688 -5.296875 L 4.304688 -6.222656 L 0.734375 -6.222656 L 0.734375 0 L 1.753906 0 L 1.753906 -2.644531 L 3.960938 -2.644531 L 3.960938 -3.578125 L 1.753906 -3.578125 L 1.753906 -5.296875 Z M 4.304688 -5.296875 "/></g></g></g><g fill="#c8c8c8" fill-opacity="1"><g transform="translate(111.123472, 45.971686)"><g><path d="M 4.304688 -5.296875 L 4.304688 -6.222656 L 0.734375 -6.222656 L 0.734375 0 L 4.304688 0 L 4.304688 -0.921875 L 1.753906 -0.921875 L 1.753906 -2.644531 L 3.960938 -2.644531 L 3.960938 -3.578125 L 1.753906 -3.578125 L 1.753906 -5.296875 Z M 4.304688 -5.296875 "/></g></g></g><g fill="#c8c8c8" fill-opacity="1"><g transform="translate(120.218727, 45.971686)"><g><path d="M 3.640625 0.0820312 C 4.851562 0.0820312 5.898438 -0.589844 6.4375 -1.585938 L 5.566406 -2.054688 C 5.203125 -1.367188 4.480469 -0.921875 3.640625 -0.921875 C 2.414062 -0.921875 1.453125 -1.875 1.453125 -3.109375 C 1.453125 -4.34375 2.414062 -5.296875 3.640625 -5.296875 C 4.480469 -5.296875 5.203125 -4.851562 5.566406 -4.167969 L 6.4375 -4.632812 C 5.898438 -5.628906 4.851562 -6.304688 3.640625 -6.304688 C 1.875 -6.304688 0.445312 -4.875 0.445312 -3.109375 C 0.445312 -1.347656 1.875 0.0820312 3.640625 0.0820312 Z M 3.640625 0.0820312 "/></g></g></g><g fill="#c8c8c8" fill-opacity="1"><g transform="translate(131.221787, 45.971686)"><g><path d="M 4.324219 -6.222656 L 0.0195312 -6.222656 L 0.0195312 -5.277344 L 1.667969 -5.277344 L 1.667969 0 L 2.675781 0 L 2.675781 -5.277344 L 4.324219 -5.277344 Z M 4.324219 -6.222656 "/></g></g></g><g fill="#c8c8c8" fill-opacity="1"><g transform="translate(139.829724, 45.971686)"><g><path d="M 3.109375 0.0820312 C 4.519531 0.0820312 5.578125 -0.820312 5.578125 -2.023438 L 5.578125 -6.222656 L 4.5625 -6.222656 L 4.5625 -2.199219 C 4.5625 -1.429688 3.941406 -0.859375 3.109375 -0.859375 C 2.28125 -0.859375 1.667969 -1.429688 1.667969 -2.199219 L 1.667969 -6.222656 L 0.652344 -6.222656 L 0.652344 -2.023438 C 0.652344 -0.820312 1.699219 0.0820312 3.109375 0.0820312 Z M 3.109375 0.0820312 "/></g></g></g><g fill="#c8c8c8" fill-opacity="1"><g transform="translate(150.324728, 45.971686)"><g><path d="M 3.566406 -2.707031 C 4.34375 -2.871094 4.914062 -3.554688 4.914062 -4.394531 C 4.914062 -5.414062 4.125 -6.222656 3.121094 -6.222656 L 0.683594 -6.222656 L 0.683594 0 L 1.699219 0 L 1.699219 -2.613281 L 2.5625 -2.613281 L 4.210938 0 L 5.351562 0 Z M 1.699219 -3.496094 L 1.699219 -5.277344 L 2.996094 -5.277344 C 3.523438 -5.277344 3.917969 -4.914062 3.917969 -4.386719 C 3.917969 -3.855469 3.523438 -3.496094 2.996094 -3.496094 Z M 1.699219 -3.496094 "/></g></g></g><g fill="#c8c8c8" fill-opacity="1"><g transform="translate(159.959143, 45.971686)"><g><path d="M 4.304688 -5.296875 L 4.304688 -6.222656 L 0.734375 -6.222656 L 0.734375 0 L 4.304688 0 L 4.304688 -0.921875 L 1.753906 -0.921875 L 1.753906 -2.644531 L 3.960938 -2.644531 L 3.960938 -3.578125 L 1.753906 -3.578125 L 1.753906 -5.296875 Z M 4.304688 -5.296875 "/></g></g></g><g fill="#c8c8c8" fill-opacity="1"><g transform="translate(169.054399, 45.971686)"><g><path d="M 3.566406 -2.707031 C 4.34375 -2.871094 4.914062 -3.554688 4.914062 -4.394531 C 4.914062 -5.414062 4.125 -6.222656 3.121094 -6.222656 L 0.683594 -6.222656 L 0.683594 0 L 1.699219 0 L 1.699219 -2.613281 L 2.5625 -2.613281 L 4.210938 0 L 5.351562 0 Z M 1.699219 -3.496094 L 1.699219 -5.277344 L 2.996094 -5.277344 C 3.523438 -5.277344 3.917969 -4.914062 3.917969 -4.386719 C 3.917969 -3.855469 3.523438 -3.496094 2.996094 -3.496094 Z M 1.699219 -3.496094 "/></g></g></g></svg>